<svg xmlns="http://www.w3.org/2000/svg" xmlns:xlink="http://www.w3.org/1999/xlink" viewBox="0 0 430 430" width="430" height="430" preserveAspectRatio="xMidYMid meet" style="width: 100%; height: 100%; transform: translate3d(0px, 0px, 0px); content-visibility: visible;"><defs><clipPath id="__lottie_element_596"><rect width="430" height="430" x="0" y="0"/></clipPath><clipPath id="__lottie_element_598"><path d="M0,0 L430,0 L430,430 L0,430z"/></clipPath><clipPath id="__lottie_element_603"><path d="M0,0 L430,0 L430,430 L0,430z"/></clipPath><clipPath id="__lottie_element_607"><path d="M0,0 L430,0 L430,430 L0,430z"/></clipPath><g id="__lottie_element_610"><g clip-path="url(#__lottie_element_611)" transform="matrix(1,0,0,1,0,0)" opacity="1" style="display: block;"><g transform="matrix(0.7071067690849304,-0.7071067690849304,0.7071067690849304,0.7071067690849304,211.443603515625,204.69808959960938)" opacity="1" style="display: none;"><g opacity="1" transform="matrix(1,0,0,1,0,0)"><path class="secondary" fill="rgb(255,199,56)" fill-opacity="1" d=" M-59.01826477050781,21.802696228027344 C-59.01826477050781,21.802696228027344 112.91593170166016,21.014827728271484 112.91593170166016,21.014827728271484 C112.91593170166016,21.014827728271484 112.91593170166016,23.981863021850586 112.91593170166016,23.981863021850586 C112.91593170166016,23.981863021850586 144.33282470703125,23.981863021850586 144.33282470703125,23.981863021850586 C144.33282470703125,23.981863021850586 144.33282470703125,22.138164520263672 144.33282470703125,22.138164520263672 C144.33282470703125,22.138164520263672 175.7498321533203,22.138164520263672 175.7498321533203,22.138164520263672 C175.7498321533203,22.138164520263672 175.7498321533203,23.981863021850586 175.7498321533203,23.981863021850586 C175.7498321533203,23.981863021850586 207.1659393310547,23.981863021850586 207.1659393310547,23.981863021850586 C207.1659393310547,23.981863021850586 207.1659393310547,21.014827728271484 207.1659393310547,21.014827728271484 C207.1659393310547,21.014827728271484 220.13592529296875,21.007476806640625 220.13592529296875,21.007476806640625 C226.27093505859375,21.007476806640625 231.1306915283203,16.932382583618164 231.1306915283203,10.797382354736328 C231.1306915283203,10.797382354736328 231.24383544921875,5.661379337310791 231.24383544921875,5.661379337310791 C231.24383544921875,-0.47362056374549866 226.27003479003906,-5.446620464324951 220.13592529296875,-5.446620464324951 C220.13592529296875,-5.446620464324951 -59.01826477050781,-4.650503158569336 -59.01826477050781,-4.650503158569336"/></g></g><g transform="matrix(0.7071067690849304,-0.7071067690849304,0.7071067690849304,0.7071067690849304,211.443603515625,204.69808959960938)" opacity="1" style="display: block;"><g opacity="1" transform="matrix(1,0,0,1,0,0)"><path class="secondary" fill="rgb(255,199,56)" fill-opacity="1" d=" M-35.37099838256836,25.871999740600586 C-35.37099838256836,25.871999740600586 112.8010025024414,25.569000244140625 112.8010025024414,25.569000244140625 C112.8010025024414,25.569000244140625 112.8010025024414,54.604000091552734 112.8010025024414,54.604000091552734 C112.8010025024414,54.604000091552734 144.2169952392578,54.604000091552734 144.2169952392578,54.604000091552734 C144.2169952392578,54.604000091552734 144.2169952392578,36.5629997253418 144.2169952392578,36.5629997253418 C144.2169952392578,36.5629997253418 175.63400268554688,36.5629997253418 175.63400268554688,36.5629997253418 C175.63400268554688,36.5629997253418 175.63400268554688,54.604000091552734 175.63400268554688,54.604000091552734 C175.63400268554688,54.604000091552734 207.05099487304688,54.604000091552734 207.05099487304688,54.604000091552734 C207.05099487304688,54.604000091552734 207.05099487304688,25.569000244140625 207.05099487304688,25.569000244140625 C207.05099487304688,25.569000244140625 220.02099609375,25.496999740600586 220.02099609375,25.496999740600586 C226.156005859375,25.496999740600586 231.1280059814453,20.52400016784668 231.1280059814453,14.388999938964844 C231.1280059814453,14.388999938964844 231.1280059814453,-0.17499999701976776 231.1280059814453,-0.17499999701976776 C231.1280059814453,-6.309999942779541 226.156005859375,-11.282999992370605 220.02099609375,-11.282999992370605 C220.02099609375,-11.282999992370605 -35.37099838256836,-10.907999992370605 -35.37099838256836,-10.907999992370605"/></g></g><g transform="matrix(0.7071067690849304,-0.7071067690849304,-0.7071067690849304,-0.7071067690849304,221.54391479492188,216.44540405273438)" opacity="1" style="display: none;"><g opacity="1" transform="matrix(1,0,0,1,0,0)"><path class="secondary" fill="rgb(255,199,56)" fill-opacity="1" d=" M-61.2735595703125,21.345495223999023 C-61.2735595703125,21.345495223999023 112.92884826660156,20.503149032592773 112.92884826660156,20.503149032592773 C112.92884826660156,20.503149032592773 112.92884826660156,20.54134750366211 112.92884826660156,20.54134750366211 C112.92884826660156,20.54134750366211 144.34584045410156,20.54134750366211 144.34584045410156,20.54134750366211 C144.34584045410156,20.54134750366211 144.34584045410156,20.51747703552246 144.34584045410156,20.51747703552246 C144.34584045410156,20.51747703552246 175.76284790039062,20.51747703552246 175.76284790039062,20.51747703552246 C175.76284790039062,20.51747703552246 175.76284790039062,20.54134750366211 175.76284790039062,20.54134750366211 C175.76284790039062,20.54134750366211 207.17884826660156,20.54134750366211 207.17884826660156,20.54134750366211 C207.17884826660156,20.54134750366211 207.17884826660156,20.503149032592773 207.17884826660156,20.503149032592773 C207.17884826660156,20.503149032592773 220.1488494873047,20.503061294555664 220.1488494873047,20.503061294555664 C226.28384399414062,20.503061294555664 231.13099670410156,16.52884864807129 231.13099670410156,10.39384937286377 C231.13099670410156,10.39384937286377 231.25685119628906,6.317119598388672 231.25685119628906,6.317119598388672 C231.25685119628906,0.18211951851844788 226.28285217285156,-4.7908806800842285 220.1488494873047,-4.7908806800842285 C220.1488494873047,-4.7908806800842285 -61.2735595703125,-3.947448968887329 -61.2735595703125,-3.947448968887329"/></g></g></g></g><clipPath id="__lottie_element_611"><path d="M0,0 L430,0 L430,430 L0,430z"/></clipPath><clipPath id="__lottie_element_621"><path d="M0,0 L430,0 L430,430 L0,430z"/></clipPath><clipPath id="__lottie_element_625"><path d="M0,0 L430,0 L430,430 L0,430z"/></clipPath><g id="__lottie_element_628"><g clip-path="url(#__lottie_element_629)" transform="matrix(1,0,0,1,0,0)" opacity="1" style="display: block;"><g transform="matrix(0.7071067690849304,-0.7071067690849304,0.7071067690849304,0.7071067690849304,211.443603515625,204.69808959960938)" opacity="1" style="display: none;"><g opacity="1" transform="matrix(1,0,0,1,0,0)"><path class="secondary" fill="rgb(255,199,56)" fill-opacity="1" d=" M-68.97686004638672,-3.6329565048217773 C-68.97686004638672,0.7490242719650269 -102.9859619140625,4.300306797027588 -144.93896484375,4.300306797027588 C-186.8919677734375,4.300306797027588 -220.90185546875,0.7490242719650269 -220.90185546875,-3.6329565048217773 C-220.90185546875,-8.014937400817871 -186.8919677734375,-11.567015647888184 -144.93896484375,-11.567015647888184 C-102.9859619140625,-11.567015647888184 -68.97686004638672,-8.014937400817871 -68.97686004638672,-3.6329565048217773z M-99.69596099853516,-3.632854461669922 C-99.69596099853516,-6.2422776222229 -119.95195770263672,-8.358912467956543 -144.93896484375,-8.358912467956543 C-169.92596435546875,-8.358912467956543 -190.1819610595703,-6.242379665374756 -190.1819610595703,-3.6329565048217773 C-190.1819610595703,-1.0235331058502197 -169.92596435546875,1.0922037363052368 -144.93896484375,1.0922037363052368 C-119.95195770263672,1.0922037363052368 -99.69596099853516,-1.0234310626983643 -99.69596099853516,-3.632854461669922z"/></g></g><g transform="matrix(0.7071067690849304,-0.7071067690849304,0.7071067690849304,0.7071067690849304,211.443603515625,204.69808959960938)" opacity="1" style="display: block;"><g opacity="1" transform="matrix(1,0,0,1,0,0)"><path class="secondary" fill="rgb(255,199,56)" fill-opacity="1" d=" M-69.00199890136719,7.142000198364258 C-69.00199890136719,-34.59199905395508 -103.01200103759766,-68.42500305175781 -144.96499633789062,-68.42500305175781 C-186.91799926757812,-68.42500305175781 -220.927001953125,-34.59199905395508 -220.927001953125,7.142000198364258 C-220.927001953125,48.875999450683594 -186.91799926757812,82.70800018310547 -144.96499633789062,82.70800018310547 C-103.01200103759766,82.70800018310547 -69.00199890136719,48.875999450683594 -69.00199890136719,7.142000198364258z M-99.72200012207031,7.142000198364258 C-99.72200012207031,31.999000549316406 -119.97799682617188,52.14799880981445 -144.96499633789062,52.14799880981445 C-169.95199584960938,52.14799880981445 -190.20799255371094,31.999000549316406 -190.20799255371094,7.142000198364258 C-190.20799255371094,-17.71500015258789 -169.95199584960938,-37.8650016784668 -144.96499633789062,-37.8650016784668 C-119.97799682617188,-37.8650016784668 -99.72200012207031,-17.71500015258789 -99.72200012207031,7.142000198364258z"/></g></g><g transform="matrix(0.7071067690849304,-0.7071067690849304,-0.7071067690849304,-0.7071067690849304,221.54391479492188,216.44540405273438)" opacity="1" style="display: none;"><g opacity="1" transform="matrix(1,0,0,1,0,0)"><path class="secondary" fill="rgb(255,199,56)" fill-opacity="1" d=" M-68.87315368652344,20.126239776611328 C-68.87315368652344,20.185508728027344 -102.88215637207031,20.232383728027344 -144.8351593017578,20.232383728027344 C-186.7881622314453,20.232383728027344 -220.79815673828125,20.185508728027344 -220.79815673828125,20.126239776611328 C-220.79815673828125,20.066970825195312 -186.7881622314453,20.019094467163086 -144.8351593017578,20.019094467163086 C-102.88215637207031,20.019094467163086 -68.87315368652344,20.066970825195312 -68.87315368652344,20.126239776611328z M-99.59215545654297,20.126239776611328 C-99.59215545654297,20.091453552246094 -119.84815979003906,20.061946868896484 -144.8351593017578,20.061946868896484 C-169.82215881347656,20.061946868896484 -190.07916259765625,20.091453552246094 -190.07916259765625,20.126239776611328 C-190.07916259765625,20.16102409362793 -169.82215881347656,20.189529418945312 -144.8351593017578,20.189529418945312 C-119.84815979003906,20.189529418945312 -99.59215545654297,20.16102409362793 -99.59215545654297,20.126239776611328z"/></g></g></g></g><clipPath id="__lottie_element_629"><path d="M0,0 L430,0 L430,430 L0,430z"/></clipPath><clipPath id="__lottie_element_633"><path d="M0,0 L430,0 L430,430 L0,430z"/></clipPath><mask id="__lottie_element_628_1" mask-type="alpha"><use xmlns:ns1="http://www.w3.org/1999/xlink" ns1:href="#__lottie_element_628"/></mask><mask id="__lottie_element_610_1" mask-type="alpha"><use xmlns:ns2="http://www.w3.org/1999/xlink" ns2:href="#__lottie_element_610"/></mask><clipPath id="__lottie_element_1255"><path d="M0,0 L430,0 L430,430 L0,430z"/></clipPath></defs><g clip-path="url(#__lottie_element_596)"><g clip-path="url(#__lottie_element_598)" transform="matrix(1,0,0,1,0,0)" opacity="1" style="display: none;"><g clip-path="url(#__lottie_element_603)" transform="matrix(1,0,0,1,0,0)" opacity="1" style="display: block;"><g transform="matrix(0.7071067690849304,-0.7071067690849304,0.7071067690849304,0.7071067690849304,211.443603515625,204.69808959960938)" opacity="1" style="display: none;"><g opacity="1" transform="matrix(1,0,0,1,0,0)"><path class="secondary" fill="rgb(255,199,56)" fill-opacity="1" d=" M-59.01826477050781,21.802696228027344 C-59.01826477050781,21.802696228027344 112.91593170166016,21.014827728271484 112.91593170166016,21.014827728271484 C112.91593170166016,21.014827728271484 112.91593170166016,23.981863021850586 112.91593170166016,23.981863021850586 C112.91593170166016,23.981863021850586 144.33282470703125,23.981863021850586 144.33282470703125,23.981863021850586 C144.33282470703125,23.981863021850586 144.33282470703125,22.138164520263672 144.33282470703125,22.138164520263672 C144.33282470703125,22.138164520263672 175.7498321533203,22.138164520263672 175.7498321533203,22.138164520263672 C175.7498321533203,22.138164520263672 175.7498321533203,23.981863021850586 175.7498321533203,23.981863021850586 C175.7498321533203,23.981863021850586 207.1659393310547,23.981863021850586 207.1659393310547,23.981863021850586 C207.1659393310547,23.981863021850586 207.1659393310547,21.014827728271484 207.1659393310547,21.014827728271484 C207.1659393310547,21.014827728271484 220.13592529296875,21.007476806640625 220.13592529296875,21.007476806640625 C226.27093505859375,21.007476806640625 231.1306915283203,16.932382583618164 231.1306915283203,10.797382354736328 C231.1306915283203,10.797382354736328 231.24383544921875,5.661379337310791 231.24383544921875,5.661379337310791 C231.24383544921875,-0.47362056374549866 226.27003479003906,-5.446620464324951 220.13592529296875,-5.446620464324951 C220.13592529296875,-5.446620464324951 -59.01826477050781,-4.650503158569336 -59.01826477050781,-4.650503158569336"/></g></g><g transform="matrix(0.7071067690849304,-0.7071067690849304,0.7071067690849304,0.7071067690849304,211.443603515625,204.69808959960938)" opacity="0.5" style="mix-blend-mode: multiply; display: none;"><g opacity="1" transform="matrix(1,0,0,1,0,0)"><path class="secondary" fill="rgb(255,199,56)" fill-opacity="1" d=" M-59.01826477050781,21.802696228027344 C-59.01826477050781,21.802696228027344 112.91593170166016,21.014827728271484 112.91593170166016,21.014827728271484 C112.91593170166016,21.014827728271484 112.91593170166016,23.981863021850586 112.91593170166016,23.981863021850586 C112.91593170166016,23.981863021850586 144.33282470703125,23.981863021850586 144.33282470703125,23.981863021850586 C144.33282470703125,23.981863021850586 144.33282470703125,22.138164520263672 144.33282470703125,22.138164520263672 C144.33282470703125,22.138164520263672 175.7498321533203,22.138164520263672 175.7498321533203,22.138164520263672 C175.7498321533203,22.138164520263672 175.7498321533203,23.981863021850586 175.7498321533203,23.981863021850586 C175.7498321533203,23.981863021850586 207.1659393310547,23.981863021850586 207.1659393310547,23.981863021850586 C207.1659393310547,23.981863021850586 207.1659393310547,21.014827728271484 207.1659393310547,21.014827728271484 C207.1659393310547,21.014827728271484 220.13592529296875,21.007476806640625 220.13592529296875,21.007476806640625 C226.27093505859375,21.007476806640625 231.1306915283203,16.932382583618164 231.1306915283203,10.797382354736328 C231.1306915283203,10.797382354736328 231.24383544921875,5.661379337310791 231.24383544921875,5.661379337310791 C231.24383544921875,-0.47362056374549866 226.27003479003906,-5.446620464324951 220.13592529296875,-5.446620464324951 C220.13592529296875,-5.446620464324951 -59.01826477050781,-4.650503158569336 -59.01826477050781,-4.650503158569336"/></g></g><g transform="matrix(0.7071067690849304,-0.7071067690849304,0.7071067690849304,0.7071067690849304,211.443603515625,204.69808959960938)" opacity="1" style="display: block;"><g opacity="1" transform="matrix(1,0,0,1,0,0)"><path class="secondary" fill="rgb(255,199,56)" fill-opacity="1" d=" M-35.37099838256836,25.871999740600586 C-35.37099838256836,25.871999740600586 112.8010025024414,25.569000244140625 112.8010025024414,25.569000244140625 C112.8010025024414,25.569000244140625 112.8010025024414,54.604000091552734 112.8010025024414,54.604000091552734 C112.8010025024414,54.604000091552734 144.2169952392578,54.604000091552734 144.2169952392578,54.604000091552734 C144.2169952392578,54.604000091552734 144.2169952392578,36.5629997253418 144.2169952392578,36.5629997253418 C144.2169952392578,36.5629997253418 175.63400268554688,36.5629997253418 175.63400268554688,36.5629997253418 C175.63400268554688,36.5629997253418 175.63400268554688,54.604000091552734 175.63400268554688,54.604000091552734 C175.63400268554688,54.604000091552734 207.05099487304688,54.604000091552734 207.05099487304688,54.604000091552734 C207.05099487304688,54.604000091552734 207.05099487304688,25.569000244140625 207.05099487304688,25.569000244140625 C207.05099487304688,25.569000244140625 220.02099609375,25.496999740600586 220.02099609375,25.496999740600586 C226.156005859375,25.496999740600586 231.1280059814453,20.52400016784668 231.1280059814453,14.388999938964844 C231.1280059814453,14.388999938964844 231.1280059814453,-0.17499999701976776 231.1280059814453,-0.17499999701976776 C231.1280059814453,-6.309999942779541 226.156005859375,-11.282999992370605 220.02099609375,-11.282999992370605 C220.02099609375,-11.282999992370605 -35.37099838256836,-10.907999992370605 -35.37099838256836,-10.907999992370605"/></g></g><g transform="matrix(0.7071067690849304,-0.7071067690849304,0.7071067690849304,0.7071067690849304,211.443603515625,204.69808959960938)" opacity="0.5" style="mix-blend-mode: multiply; display: block;"><g opacity="1" transform="matrix(1,0,0,1,0,0)"><path class="secondary" fill="rgb(255,199,56)" fill-opacity="1" d=" M-35.37099838256836,25.871999740600586 C-35.37099838256836,25.871999740600586 112.8010025024414,25.569000244140625 112.8010025024414,25.569000244140625 C112.8010025024414,25.569000244140625 112.8010025024414,54.604000091552734 112.8010025024414,54.604000091552734 C112.8010025024414,54.604000091552734 144.2169952392578,54.604000091552734 144.2169952392578,54.604000091552734 C144.2169952392578,54.604000091552734 144.2169952392578,36.5629997253418 144.2169952392578,36.5629997253418 C144.2169952392578,36.5629997253418 175.63400268554688,36.5629997253418 175.63400268554688,36.5629997253418 C175.63400268554688,36.5629997253418 175.63400268554688,54.604000091552734 175.63400268554688,54.604000091552734 C175.63400268554688,54.604000091552734 207.05099487304688,54.604000091552734 207.05099487304688,54.604000091552734 C207.05099487304688,54.604000091552734 207.05099487304688,25.569000244140625 207.05099487304688,25.569000244140625 C207.05099487304688,25.569000244140625 220.02099609375,25.496999740600586 220.02099609375,25.496999740600586 C226.156005859375,25.496999740600586 231.1280059814453,20.52400016784668 231.1280059814453,14.388999938964844 C231.1280059814453,14.388999938964844 231.1280059814453,-0.17499999701976776 231.1280059814453,-0.17499999701976776 C231.1280059814453,-6.309999942779541 226.156005859375,-11.282999992370605 220.02099609375,-11.282999992370605 C220.02099609375,-11.282999992370605 -35.37099838256836,-10.907999992370605 -35.37099838256836,-10.907999992370605"/></g></g><g transform="matrix(0.7071067690849304,-0.7071067690849304,-0.7071067690849304,-0.7071067690849304,221.54391479492188,216.44540405273438)" opacity="1" style="display: none;"><g opacity="1" transform="matrix(1,0,0,1,0,0)"><path class="secondary" fill="rgb(255,199,56)" fill-opacity="1" d=" M-61.2735595703125,21.345495223999023 C-61.2735595703125,21.345495223999023 112.92884826660156,20.503149032592773 112.92884826660156,20.503149032592773 C112.92884826660156,20.503149032592773 112.92884826660156,20.54134750366211 112.92884826660156,20.54134750366211 C112.92884826660156,20.54134750366211 144.34584045410156,20.54134750366211 144.34584045410156,20.54134750366211 C144.34584045410156,20.54134750366211 144.34584045410156,20.51747703552246 144.34584045410156,20.51747703552246 C144.34584045410156,20.51747703552246 175.76284790039062,20.51747703552246 175.76284790039062,20.51747703552246 C175.76284790039062,20.51747703552246 175.76284790039062,20.54134750366211 175.76284790039062,20.54134750366211 C175.76284790039062,20.54134750366211 207.17884826660156,20.54134750366211 207.17884826660156,20.54134750366211 C207.17884826660156,20.54134750366211 207.17884826660156,20.503149032592773 207.17884826660156,20.503149032592773 C207.17884826660156,20.503149032592773 220.1488494873047,20.503061294555664 220.1488494873047,20.503061294555664 C226.28384399414062,20.503061294555664 231.13099670410156,16.52884864807129 231.13099670410156,10.39384937286377 C231.13099670410156,10.39384937286377 231.25685119628906,6.317119598388672 231.25685119628906,6.317119598388672 C231.25685119628906,0.18211951851844788 226.28285217285156,-4.7908806800842285 220.1488494873047,-4.7908806800842285 C220.1488494873047,-4.7908806800842285 -61.2735595703125,-3.947448968887329 -61.2735595703125,-3.947448968887329"/></g></g><g transform="matrix(0.7071067690849304,-0.7071067690849304,-0.7071067690849304,-0.7071067690849304,221.54391479492188,216.44540405273438)" opacity="0.5" style="mix-blend-mode: multiply; display: none;"><g opacity="1" transform="matrix(1,0,0,1,0,0)"><path class="secondary" fill="rgb(255,199,56)" fill-opacity="1" d=" M-61.2735595703125,21.345495223999023 C-61.2735595703125,21.345495223999023 112.92884826660156,20.503149032592773 112.92884826660156,20.503149032592773 C112.92884826660156,20.503149032592773 112.92884826660156,20.54134750366211 112.92884826660156,20.54134750366211 C112.92884826660156,20.54134750366211 144.34584045410156,20.54134750366211 144.34584045410156,20.54134750366211 C144.34584045410156,20.54134750366211 144.34584045410156,20.51747703552246 144.34584045410156,20.51747703552246 C144.34584045410156,20.51747703552246 175.76284790039062,20.51747703552246 175.76284790039062,20.51747703552246 C175.76284790039062,20.51747703552246 175.76284790039062,20.54134750366211 175.76284790039062,20.54134750366211 C175.76284790039062,20.54134750366211 207.17884826660156,20.54134750366211 207.17884826660156,20.54134750366211 C207.17884826660156,20.54134750366211 207.17884826660156,20.503149032592773 207.17884826660156,20.503149032592773 C207.17884826660156,20.503149032592773 220.1488494873047,20.503061294555664 220.1488494873047,20.503061294555664 C226.28384399414062,20.503061294555664 231.13099670410156,16.52884864807129 231.13099670410156,10.39384937286377 C231.13099670410156,10.39384937286377 231.25685119628906,6.317119598388672 231.25685119628906,6.317119598388672 C231.25685119628906,0.18211951851844788 226.28285217285156,-4.7908806800842285 220.1488494873047,-4.7908806800842285 C220.1488494873047,-4.7908806800842285 -61.2735595703125,-3.947448968887329 -61.2735595703125,-3.947448968887329"/></g></g></g><g mask="url(#__lottie_element_610_1)" style="display: block;"><g clip-path="url(#__lottie_element_607)" transform="matrix(1,0,0,1,7,7)" opacity="1"><g transform="matrix(0.7071067690849304,-0.7071067690849304,0.7071067690849304,0.7071067690849304,211.443603515625,204.69808959960938)" opacity="1" style="display: none;"><g opacity="1" transform="matrix(1,0,0,1,0,0)"><path class="secondary" fill="rgb(255,199,56)" fill-opacity="1" d=" M-59.01826477050781,21.802696228027344 C-59.01826477050781,21.802696228027344 112.91593170166016,21.014827728271484 112.91593170166016,21.014827728271484 C112.91593170166016,21.014827728271484 112.91593170166016,23.981863021850586 112.91593170166016,23.981863021850586 C112.91593170166016,23.981863021850586 144.33282470703125,23.981863021850586 144.33282470703125,23.981863021850586 C144.33282470703125,23.981863021850586 144.33282470703125,22.138164520263672 144.33282470703125,22.138164520263672 C144.33282470703125,22.138164520263672 175.7498321533203,22.138164520263672 175.7498321533203,22.138164520263672 C175.7498321533203,22.138164520263672 175.7498321533203,23.981863021850586 175.7498321533203,23.981863021850586 C175.7498321533203,23.981863021850586 207.1659393310547,23.981863021850586 207.1659393310547,23.981863021850586 C207.1659393310547,23.981863021850586 207.1659393310547,21.014827728271484 207.1659393310547,21.014827728271484 C207.1659393310547,21.014827728271484 220.13592529296875,21.007476806640625 220.13592529296875,21.007476806640625 C226.27093505859375,21.007476806640625 231.1306915283203,16.932382583618164 231.1306915283203,10.797382354736328 C231.1306915283203,10.797382354736328 231.24383544921875,5.661379337310791 231.24383544921875,5.661379337310791 C231.24383544921875,-0.47362056374549866 226.27003479003906,-5.446620464324951 220.13592529296875,-5.446620464324951 C220.13592529296875,-5.446620464324951 -59.01826477050781,-4.650503158569336 -59.01826477050781,-4.650503158569336"/></g></g><g transform="matrix(0.7071067690849304,-0.7071067690849304,0.7071067690849304,0.7071067690849304,211.443603515625,204.69808959960938)" opacity="1" style="display: block;"><g opacity="1" transform="matrix(1,0,0,1,0,0)"><path class="secondary" fill="rgb(255,199,56)" fill-opacity="1" d=" M-35.37099838256836,25.871999740600586 C-35.37099838256836,25.871999740600586 112.8010025024414,25.569000244140625 112.8010025024414,25.569000244140625 C112.8010025024414,25.569000244140625 112.8010025024414,54.604000091552734 112.8010025024414,54.604000091552734 C112.8010025024414,54.604000091552734 144.2169952392578,54.604000091552734 144.2169952392578,54.604000091552734 C144.2169952392578,54.604000091552734 144.2169952392578,36.5629997253418 144.2169952392578,36.5629997253418 C144.2169952392578,36.5629997253418 175.63400268554688,36.5629997253418 175.63400268554688,36.5629997253418 C175.63400268554688,36.5629997253418 175.63400268554688,54.604000091552734 175.63400268554688,54.604000091552734 C175.63400268554688,54.604000091552734 207.05099487304688,54.604000091552734 207.05099487304688,54.604000091552734 C207.05099487304688,54.604000091552734 207.05099487304688,25.569000244140625 207.05099487304688,25.569000244140625 C207.05099487304688,25.569000244140625 220.02099609375,25.496999740600586 220.02099609375,25.496999740600586 C226.156005859375,25.496999740600586 231.1280059814453,20.52400016784668 231.1280059814453,14.388999938964844 C231.1280059814453,14.388999938964844 231.1280059814453,-0.17499999701976776 231.1280059814453,-0.17499999701976776 C231.1280059814453,-6.309999942779541 226.156005859375,-11.282999992370605 220.02099609375,-11.282999992370605 C220.02099609375,-11.282999992370605 -35.37099838256836,-10.907999992370605 -35.37099838256836,-10.907999992370605"/></g></g><g transform="matrix(0.7071067690849304,-0.7071067690849304,-0.7071067690849304,-0.7071067690849304,221.54391479492188,216.44540405273438)" opacity="1" style="display: none;"><g opacity="1" transform="matrix(1,0,0,1,0,0)"><path class="secondary" fill="rgb(255,199,56)" fill-opacity="1" d=" M-61.2735595703125,21.345495223999023 C-61.2735595703125,21.345495223999023 112.92884826660156,20.503149032592773 112.92884826660156,20.503149032592773 C112.92884826660156,20.503149032592773 112.92884826660156,20.54134750366211 112.92884826660156,20.54134750366211 C112.92884826660156,20.54134750366211 144.34584045410156,20.54134750366211 144.34584045410156,20.54134750366211 C144.34584045410156,20.54134750366211 144.34584045410156,20.51747703552246 144.34584045410156,20.51747703552246 C144.34584045410156,20.51747703552246 175.76284790039062,20.51747703552246 175.76284790039062,20.51747703552246 C175.76284790039062,20.51747703552246 175.76284790039062,20.54134750366211 175.76284790039062,20.54134750366211 C175.76284790039062,20.54134750366211 207.17884826660156,20.54134750366211 207.17884826660156,20.54134750366211 C207.17884826660156,20.54134750366211 207.17884826660156,20.503149032592773 207.17884826660156,20.503149032592773 C207.17884826660156,20.503149032592773 220.1488494873047,20.503061294555664 220.1488494873047,20.503061294555664 C226.28384399414062,20.503061294555664 231.13099670410156,16.52884864807129 231.13099670410156,10.39384937286377 C231.13099670410156,10.39384937286377 231.25685119628906,6.317119598388672 231.25685119628906,6.317119598388672 C231.25685119628906,0.18211951851844788 226.28285217285156,-4.7908806800842285 220.1488494873047,-4.7908806800842285 C220.1488494873047,-4.7908806800842285 -61.2735595703125,-3.947448968887329 -61.2735595703125,-3.947448968887329"/></g></g></g></g><g transform="matrix(0.7071067690849304,-0.7071067690849304,0.7071067690849304,0.7071067690849304,211.443603515625,204.69808959960938)" opacity="1" style="display: none;"><g opacity="1" transform="matrix(1,0,0,1,0,0)"><path stroke-linecap="butt" stroke-linejoin="miter" fill-opacity="0" stroke-miterlimit="4" class="secondary" stroke="rgb(255,199,56)" stroke-opacity="1" stroke-width="2" d="M0 0"/></g><path class="secondary" fill="rgb(255,199,56)" fill-opacity="1" d=" M-68.88616943359375,18.81465721130371 C-68.88616943359375,23.196638107299805 -102.89527130126953,26.747920989990234 -144.8482666015625,26.747920989990234 C-186.80126953125,26.747920989990234 -220.81117248535156,23.196638107299805 -220.81117248535156,18.81465721130371 C-220.81117248535156,14.432676315307617 -186.80126953125,10.880598068237305 -144.8482666015625,10.880598068237305 C-102.89527130126953,10.880598068237305 -68.88616943359375,14.432676315307617 -68.88616943359375,18.81465721130371z M-99.60527038574219,18.81475830078125 C-99.60527038574219,16.20533561706543 -119.86127471923828,14.088701248168945 -144.8482666015625,14.088701248168945 C-169.83526611328125,14.088701248168945 -190.0921630859375,16.205232620239258 -190.0921630859375,18.81465721130371 C-190.0921630859375,21.42407989501953 -169.83526611328125,23.539817810058594 -144.8482666015625,23.539817810058594 C-119.86127471923828,23.539817810058594 -99.60527038574219,21.424182891845703 -99.60527038574219,18.81475830078125z"/><path class="secondary" fill="rgb(255,199,56)" fill-opacity="0.5" d=" M-68.88616943359375,18.81465721130371 C-68.88616943359375,23.196638107299805 -102.89527130126953,26.747920989990234 -144.8482666015625,26.747920989990234 C-186.80126953125,26.747920989990234 -220.81117248535156,23.196638107299805 -220.81117248535156,18.81465721130371 C-220.81117248535156,14.432676315307617 -186.80126953125,10.880598068237305 -144.8482666015625,10.880598068237305 C-102.89527130126953,10.880598068237305 -68.88616943359375,14.432676315307617 -68.88616943359375,18.81465721130371z M-99.60527038574219,18.81475830078125 C-99.60527038574219,16.20533561706543 -119.86127471923828,14.088701248168945 -144.8482666015625,14.088701248168945 C-169.83526611328125,14.088701248168945 -190.0921630859375,16.205232620239258 -190.0921630859375,18.81465721130371 C-190.0921630859375,21.42407989501953 -169.83526611328125,23.539817810058594 -144.8482666015625,23.539817810058594 C-119.86127471923828,23.539817810058594 -99.60527038574219,21.424182891845703 -99.60527038574219,18.81475830078125z" style="mix-blend-mode: multiply;"/><g opacity="1" transform="matrix(1,0,0,1,0,0)"/></g><g transform="matrix(0.7071067690849304,-0.7071067690849304,0.7071067690849304,0.7071067690849304,211.443603515625,204.69808959960938)" opacity="1" style="display: block;"><g opacity="1" transform="matrix(1,0,0,1,0,0)"><path stroke-linecap="butt" stroke-linejoin="miter" fill-opacity="0" stroke-miterlimit="4" class="secondary" stroke="rgb(255,199,56)" stroke-opacity="1" stroke-width="2" d="M0 0"/></g><g opacity="1" transform="matrix(1,0,0,1,0,0)"><path class="secondary" fill="rgb(255,199,56)" fill-opacity="1" d=" M-69.00199890136719,7.142000198364258 C-69.00199890136719,-34.59199905395508 -103.01200103759766,-68.42500305175781 -144.96499633789062,-68.42500305175781 C-186.91799926757812,-68.42500305175781 -220.927001953125,-34.59199905395508 -220.927001953125,7.142000198364258 C-220.927001953125,48.875999450683594 -186.91799926757812,82.70800018310547 -144.96499633789062,82.70800018310547 C-103.01200103759766,82.70800018310547 -69.00199890136719,48.875999450683594 -69.00199890136719,7.142000198364258z M-99.72200012207031,7.142000198364258 C-99.72200012207031,31.999000549316406 -119.97799682617188,52.14799880981445 -144.96499633789062,52.14799880981445 C-169.95199584960938,52.14799880981445 -190.20799255371094,31.999000549316406 -190.20799255371094,7.142000198364258 C-190.20799255371094,-17.71500015258789 -169.95199584960938,-37.8650016784668 -144.96499633789062,-37.8650016784668 C-119.97799682617188,-37.8650016784668 -99.72200012207031,-17.71500015258789 -99.72200012207031,7.142000198364258z"/><path class="secondary" fill="rgb(255,199,56)" fill-opacity="0.5" d=" M-69.00199890136719,7.142000198364258 C-69.00199890136719,-34.59199905395508 -103.01200103759766,-68.42500305175781 -144.96499633789062,-68.42500305175781 C-186.91799926757812,-68.42500305175781 -220.927001953125,-34.59199905395508 -220.927001953125,7.142000198364258 C-220.927001953125,48.875999450683594 -186.91799926757812,82.70800018310547 -144.96499633789062,82.70800018310547 C-103.01200103759766,82.70800018310547 -69.00199890136719,48.875999450683594 -69.00199890136719,7.142000198364258z M-99.72200012207031,7.142000198364258 C-99.72200012207031,31.999000549316406 -119.97799682617188,52.14799880981445 -144.96499633789062,52.14799880981445 C-169.95199584960938,52.14799880981445 -190.20799255371094,31.999000549316406 -190.20799255371094,7.142000198364258 C-190.20799255371094,-17.71500015258789 -169.95199584960938,-37.8650016784668 -144.96499633789062,-37.8650016784668 C-119.97799682617188,-37.8650016784668 -99.72200012207031,-17.71500015258789 -99.72200012207031,7.142000198364258z" style="mix-blend-mode: multiply;"/></g></g><g transform="matrix(0.7071067690849304,-0.7071067690849304,-0.7071067690849304,-0.7071067690849304,221.54391479492188,216.44540405273438)" opacity="1" style="display: none;"><g opacity="1" transform="matrix(1,0,0,1,0,0)"><path stroke-linecap="butt" stroke-linejoin="miter" fill-opacity="0" stroke-miterlimit="4" class="secondary" stroke="rgb(255,199,56)" stroke-opacity="1" stroke-width="2" d="M0 0"/></g><g opacity="1" transform="matrix(1,0,0,1,0,0)"><path class="secondary" fill="rgb(255,199,56)" fill-opacity="1" d=" M-68.97403717041016,-4.843451499938965 C-68.97403717041016,-4.784182071685791 -102.9830322265625,-4.737307548522949 -144.93603515625,-4.737307548522949 C-186.8890380859375,-4.737307548522949 -220.89903259277344,-4.784182071685791 -220.89903259277344,-4.843451499938965 C-220.89903259277344,-4.9027204513549805 -186.8890380859375,-4.950595378875732 -144.93603515625,-4.950595378875732 C-102.9830322265625,-4.950595378875732 -68.97403717041016,-4.9027204513549805 -68.97403717041016,-4.843451499938965z M-99.69303894042969,-4.843451499938965 C-99.69303894042969,-4.878236293792725 -119.94903564453125,-4.907742500305176 -144.93603515625,-4.907742500305176 C-169.92303466796875,-4.907742500305176 -190.1790313720703,-4.878236293792725 -190.1790313720703,-4.843451499938965 C-190.1790313720703,-4.808666229248047 -169.92303466796875,-4.780159950256348 -144.93603515625,-4.780159950256348 C-119.94903564453125,-4.780159950256348 -99.69303894042969,-4.808666229248047 -99.69303894042969,-4.843451499938965z"/><path class="secondary" fill="rgb(255,199,56)" fill-opacity="0.5" d=" M-68.97403717041016,-4.843451499938965 C-68.97403717041016,-4.784182071685791 -102.9830322265625,-4.737307548522949 -144.93603515625,-4.737307548522949 C-186.8890380859375,-4.737307548522949 -220.89903259277344,-4.784182071685791 -220.89903259277344,-4.843451499938965 C-220.89903259277344,-4.9027204513549805 -186.8890380859375,-4.950595378875732 -144.93603515625,-4.950595378875732 C-102.9830322265625,-4.950595378875732 -68.97403717041016,-4.9027204513549805 -68.97403717041016,-4.843451499938965z M-99.69303894042969,-4.843451499938965 C-99.69303894042969,-4.878236293792725 -119.94903564453125,-4.907742500305176 -144.93603515625,-4.907742500305176 C-169.92303466796875,-4.907742500305176 -190.1790313720703,-4.878236293792725 -190.1790313720703,-4.843451499938965 C-190.1790313720703,-4.808666229248047 -169.92303466796875,-4.780159950256348 -144.93603515625,-4.780159950256348 C-119.94903564453125,-4.780159950256348 -99.69303894042969,-4.808666229248047 -99.69303894042969,-4.843451499938965z" style="mix-blend-mode: multiply;"/></g></g><g transform="matrix(0.7071067690849304,-0.7071067690849304,-0.7071067690849304,-0.7071067690849304,221.54391479492188,216.44540405273438)" opacity="1" style="display: none;"><g opacity="1" transform="matrix(1,0,0,1,0,0)"><path stroke-linecap="round" stroke-linejoin="round" fill-opacity="0" class="primary" stroke="rgb(18,19,49)" stroke-opacity="1" stroke-width="7" d=" M-99.94573211669922,-4.946326732635498 C-99.94573211669922,-4.91154146194458 -120.20172882080078,-4.883035182952881 -145.18873596191406,-4.883035182952881 C-170.1757354736328,-4.883035182952881 -190.43173217773438,-4.91154146194458 -190.43173217773438,-4.946326732635498 C-190.43173217773438,-4.981111526489258 -170.1757354736328,-5.009619235992432 -145.18873596191406,-5.009619235992432 C-120.20172882080078,-5.009619235992432 -99.94573211669922,-4.981111526489258 -99.94573211669922,-4.946326732635498z M-99.69303894042969,-4.843451499938965 C-99.69303894042969,-4.808666229248047 -119.94903564453125,-4.780159950256348 -144.93603515625,-4.780159950256348 C-169.92303466796875,-4.780159950256348 -190.1790313720703,-4.808666229248047 -190.1790313720703,-4.843451499938965 C-190.1790313720703,-4.878236293792725 -169.92303466796875,-4.907742500305176 -144.93603515625,-4.907742500305176 C-119.94903564453125,-4.907742500305176 -99.69303894042969,-4.878236293792725 -99.69303894042969,-4.843451499938965z"/></g></g><g transform="matrix(1,0,0,1,215,215)" opacity="1" style="display: none;"><g opacity="1" transform="matrix(1,0,0,1,0,0)"><path stroke-linecap="butt" stroke-linejoin="miter" fill-opacity="0" stroke-miterlimit="4" class="secondary" stroke="rgb(255,199,56)" stroke-opacity="1" stroke-width="2" d="M0 0"/></g><g opacity="1" transform="matrix(1,0,0,1,0,0)"><path class="secondary" fill="rgb(255,199,56)" fill-opacity="1" d=" M-52.23994064331055,34.07943344116211 C-54.233001708984375,33.02547073364258 -92.68685150146484,66.44371032714844 -113.45092010498047,87.03374481201172 C-132.99960327148438,106.3346939086914 -162.14862060546875,142.31483459472656 -161.34547424316406,143.36961364746094 C-161.3409881591797,143.3755340576172 -145.8645477294922,158.41722106933594 -145.86903381347656,158.4113006591797 C-146.6731719970703,157.34530639648438 -117.24254608154297,121.51268768310547 -97.47723388671875,102.20841979980469 C-76.47249603271484,81.62628173828125 -37.75861740112305,48.8761100769043 -36.090850830078125,49.795108795166016 C-36.086185455322266,49.7976188659668 -52.23527526855469,34.08194351196289 -52.23994064331055,34.07943344116211z"/><path class="secondary" fill="rgb(255,199,56)" fill-opacity="0.5" d=" M-52.23994064331055,34.07943344116211 C-54.233001708984375,33.02547073364258 -92.68685150146484,66.44371032714844 -113.45092010498047,87.03374481201172 C-132.99960327148438,106.3346939086914 -162.14862060546875,142.31483459472656 -161.34547424316406,143.36961364746094 C-161.3409881591797,143.3755340576172 -145.8645477294922,158.41722106933594 -145.86903381347656,158.4113006591797 C-146.6731719970703,157.34530639648438 -117.24254608154297,121.51268768310547 -97.47723388671875,102.20841979980469 C-76.47249603271484,81.62628173828125 -37.75861740112305,48.8761100769043 -36.090850830078125,49.795108795166016 C-36.086185455322266,49.7976188659668 -52.23527526855469,34.08194351196289 -52.23994064331055,34.07943344116211z" style="mix-blend-mode: multiply;"/></g></g><g transform="matrix(1,0,0,1,215,215)" opacity="1" style="display: none;"><g opacity="1" transform="matrix(1,0,0,1,0,0)"><path stroke-linecap="butt" stroke-linejoin="miter" fill-opacity="0" stroke-miterlimit="4" class="secondary" stroke="rgb(255,199,56)" stroke-opacity="1" stroke-width="2" d="M0 0"/></g><g opacity="1" transform="matrix(1,0,0,1,0,0)"><path class="secondary" fill="rgb(255,199,56)" fill-opacity="1" d=" M-49.60200881958008,39.95697784423828 C-71.81192779541016,28.212018966674805 -113.70291900634766,9.545221328735352 -151.78285217285156,43.45417022705078 C-195.2267608642578,82.13909149169922 -171.2639617919922,130.2930450439453 -162.31399536132812,142.04701232910156 C-162.2639923095703,142.11300659179688 -162.241943359375,142.362060546875 -162.29193115234375,142.2960662841797 C-171.25289916992188,130.41709899902344 -195.3336944580078,82.35515594482422 -151.09878540039062,42.852230072021484 C-111.24986267089844,7.266289234161377 -68.2768783569336,29.868074417114258 -49.69194793701172,40.109039306640625 C-49.63994598388672,40.13703918457031 -49.550010681152344,39.98497772216797 -49.60200881958008,39.95697784423828z"/><path class="secondary" fill="rgb(255,199,56)" fill-opacity="0.5" d=" M-49.60200881958008,39.95697784423828 C-71.81192779541016,28.212018966674805 -113.70291900634766,9.545221328735352 -151.78285217285156,43.45417022705078 C-195.2267608642578,82.13909149169922 -171.2639617919922,130.2930450439453 -162.31399536132812,142.04701232910156 C-162.2639923095703,142.11300659179688 -162.241943359375,142.362060546875 -162.29193115234375,142.2960662841797 C-171.25289916992188,130.41709899902344 -195.3336944580078,82.35515594482422 -151.09878540039062,42.852230072021484 C-111.24986267089844,7.266289234161377 -68.2768783569336,29.868074417114258 -49.69194793701172,40.109039306640625 C-49.63994598388672,40.13703918457031 -49.550010681152344,39.98497772216797 -49.60200881958008,39.95697784423828z" style="mix-blend-mode: multiply;"/></g></g><g transform="matrix(1,0,0,1,215,215)" opacity="1" style="display: none;"><g opacity="1" transform="matrix(1,0,0,1,0,0)"><path stroke-linecap="butt" stroke-linejoin="miter" fill-opacity="0" stroke-miterlimit="4" class="secondary" stroke="rgb(255,199,56)" stroke-opacity="1" stroke-width="2" d="M0 0"/></g><g opacity="1" transform="matrix(1,0,0,1,0,0)"><path class="secondary" fill="rgb(255,199,56)" fill-opacity="1" d=" M-52.49324035644531,33.51506423950195 C-52.5450553894043,33.4876708984375 -90.66885375976562,71.90718841552734 -109.77023315429688,91.21832275390625 C-127.02446746826172,108.65799713134766 -161.2677459716797,143.4838104248047 -161.24685668945312,143.51123046875 C-161.24673461914062,143.51138305664062 -144.27734375,159.98585510253906 -144.2774658203125,159.98570251464844 C-144.29837036132812,159.95799255371094 -109.7193832397461,125.306396484375 -92.30367279052734,107.94163513183594 C-73.1083755493164,88.80017852783203 -34.828208923339844,50.701290130615234 -34.78485870361328,50.72517776489258 C-34.78474044799805,50.725242614746094 -52.49311447143555,33.51512908935547 -52.49324035644531,33.51506423950195z"/><path class="secondary" fill="rgb(255,199,56)" fill-opacity="0.5" d=" M-52.49324035644531,33.51506423950195 C-52.5450553894043,33.4876708984375 -90.66885375976562,71.90718841552734 -109.77023315429688,91.21832275390625 C-127.02446746826172,108.65799713134766 -161.2677459716797,143.4838104248047 -161.24685668945312,143.51123046875 C-161.24673461914062,143.51138305664062 -144.27734375,159.98585510253906 -144.2774658203125,159.98570251464844 C-144.29837036132812,159.95799255371094 -109.7193832397461,125.306396484375 -92.30367279052734,107.94163513183594 C-73.1083755493164,88.80017852783203 -34.828208923339844,50.701290130615234 -34.78485870361328,50.72517776489258 C-34.78474044799805,50.725242614746094 -52.49311447143555,33.51512908935547 -52.49324035644531,33.51506423950195z" style="mix-blend-mode: multiply;"/></g></g><g transform="matrix(1,0,0,1,215,215)" opacity="1" style="display: none;"><g opacity="1" transform="matrix(1,0,0,1,0,0)"><path stroke-linecap="butt" stroke-linejoin="miter" fill-opacity="0" stroke-miterlimit="4" class="secondary" stroke="rgb(255,199,56)" stroke-opacity="1" stroke-width="2" d="M0 0"/></g><g opacity="1" transform="matrix(1,0,0,1,0,0)"><path class="secondary" fill="rgb(255,199,56)" fill-opacity="1" d=" M-49.60200119018555,39.956993103027344 C-71.81198120117188,28.212003707885742 -113.7029800415039,9.545048713684082 -151.78297424316406,43.454036712646484 C-195.22694396972656,82.13902282714844 -171.2639923095703,130.2930145263672 -162.31399536132812,142.0469970703125 C-162.2639923095703,142.11300659179688 -162.2419891357422,142.3620147705078 -162.2919921875,142.2960205078125 C-171.2529754638672,130.41702270507812 -195.3339385986328,82.35503387451172 -151.0989532470703,42.85205078125 C-111.24996948242188,7.266063213348389 -68.2769775390625,29.86801528930664 -49.69198989868164,40.1090087890625 C-49.63998794555664,40.13700866699219 -49.55000305175781,39.9849967956543 -49.60200119018555,39.956993103027344z"/><path class="secondary" fill="rgb(255,199,56)" fill-opacity="0.5" d=" M-49.60200119018555,39.956993103027344 C-71.81198120117188,28.212003707885742 -113.7029800415039,9.545048713684082 -151.78297424316406,43.454036712646484 C-195.22694396972656,82.13902282714844 -171.2639923095703,130.2930145263672 -162.31399536132812,142.0469970703125 C-162.2639923095703,142.11300659179688 -162.2419891357422,142.3620147705078 -162.2919921875,142.2960205078125 C-171.2529754638672,130.41702270507812 -195.3339385986328,82.35503387451172 -151.0989532470703,42.85205078125 C-111.24996948242188,7.266063213348389 -68.2769775390625,29.86801528930664 -49.69198989868164,40.1090087890625 C-49.63998794555664,40.13700866699219 -49.55000305175781,39.9849967956543 -49.60200119018555,39.956993103027344z" style="mix-blend-mode: multiply;"/></g></g><g clip-path="url(#__lottie_element_621)" transform="matrix(1,0,0,1,0,0)" opacity="1" style="display: block;"><g transform="matrix(0.7071067690849304,-0.7071067690849304,0.7071067690849304,0.7071067690849304,211.443603515625,204.69808959960938)" opacity="1" style="display: none;"><g opacity="1" transform="matrix(1,0,0,1,0,0)"><path class="secondary" fill="rgb(255,199,56)" fill-opacity="1" d=" M-68.97686004638672,-3.6329565048217773 C-68.97686004638672,0.7490242719650269 -102.9859619140625,4.300306797027588 -144.93896484375,4.300306797027588 C-186.8919677734375,4.300306797027588 -220.90185546875,0.7490242719650269 -220.90185546875,-3.6329565048217773 C-220.90185546875,-8.014937400817871 -186.8919677734375,-11.567015647888184 -144.93896484375,-11.567015647888184 C-102.9859619140625,-11.567015647888184 -68.97686004638672,-8.014937400817871 -68.97686004638672,-3.6329565048217773z M-99.69596099853516,-3.632854461669922 C-99.69596099853516,-6.2422776222229 -119.95195770263672,-8.358912467956543 -144.93896484375,-8.358912467956543 C-169.92596435546875,-8.358912467956543 -190.1819610595703,-6.242379665374756 -190.1819610595703,-3.6329565048217773 C-190.1819610595703,-1.0235331058502197 -169.92596435546875,1.0922037363052368 -144.93896484375,1.0922037363052368 C-119.95195770263672,1.0922037363052368 -99.69596099853516,-1.0234310626983643 -99.69596099853516,-3.632854461669922z"/></g></g><g transform="matrix(0.7071067690849304,-0.7071067690849304,0.7071067690849304,0.7071067690849304,211.443603515625,204.69808959960938)" opacity="0.5" style="mix-blend-mode: multiply; display: none;"><g opacity="1" transform="matrix(1,0,0,1,0,0)"><path class="secondary" fill="rgb(255,199,56)" fill-opacity="1" d=" M-68.97686004638672,-3.6329565048217773 C-68.97686004638672,0.7490242719650269 -102.9859619140625,4.300306797027588 -144.93896484375,4.300306797027588 C-186.8919677734375,4.300306797027588 -220.90185546875,0.7490242719650269 -220.90185546875,-3.6329565048217773 C-220.90185546875,-8.014937400817871 -186.8919677734375,-11.567015647888184 -144.93896484375,-11.567015647888184 C-102.9859619140625,-11.567015647888184 -68.97686004638672,-8.014937400817871 -68.97686004638672,-3.6329565048217773z M-99.69596099853516,-3.632854461669922 C-99.69596099853516,-6.2422776222229 -119.95195770263672,-8.358912467956543 -144.93896484375,-8.358912467956543 C-169.92596435546875,-8.358912467956543 -190.1819610595703,-6.242379665374756 -190.1819610595703,-3.6329565048217773 C-190.1819610595703,-1.0235331058502197 -169.92596435546875,1.0922037363052368 -144.93896484375,1.0922037363052368 C-119.95195770263672,1.0922037363052368 -99.69596099853516,-1.0234310626983643 -99.69596099853516,-3.632854461669922z"/></g></g><g transform="matrix(0.7071067690849304,-0.7071067690849304,0.7071067690849304,0.7071067690849304,211.443603515625,204.69808959960938)" opacity="1" style="display: block;"><g opacity="1" transform="matrix(1,0,0,1,0,0)"><path class="secondary" fill="rgb(255,199,56)" fill-opacity="1" d=" M-69.00199890136719,7.142000198364258 C-69.00199890136719,-34.59199905395508 -103.01200103759766,-68.42500305175781 -144.96499633789062,-68.42500305175781 C-186.91799926757812,-68.42500305175781 -220.927001953125,-34.59199905395508 -220.927001953125,7.142000198364258 C-220.927001953125,48.875999450683594 -186.91799926757812,82.70800018310547 -144.96499633789062,82.70800018310547 C-103.01200103759766,82.70800018310547 -69.00199890136719,48.875999450683594 -69.00199890136719,7.142000198364258z M-99.72200012207031,7.142000198364258 C-99.72200012207031,31.999000549316406 -119.97799682617188,52.14799880981445 -144.96499633789062,52.14799880981445 C-169.95199584960938,52.14799880981445 -190.20799255371094,31.999000549316406 -190.20799255371094,7.142000198364258 C-190.20799255371094,-17.71500015258789 -169.95199584960938,-37.8650016784668 -144.96499633789062,-37.8650016784668 C-119.97799682617188,-37.8650016784668 -99.72200012207031,-17.71500015258789 -99.72200012207031,7.142000198364258z"/></g></g><g transform="matrix(0.7071067690849304,-0.7071067690849304,0.7071067690849304,0.7071067690849304,211.443603515625,204.69808959960938)" opacity="0.5" style="mix-blend-mode: multiply; display: block;"><g opacity="1" transform="matrix(1,0,0,1,0,0)"><path class="secondary" fill="rgb(255,199,56)" fill-opacity="1" d=" M-69.00199890136719,7.142000198364258 C-69.00199890136719,-34.59199905395508 -103.01200103759766,-68.42500305175781 -144.96499633789062,-68.42500305175781 C-186.91799926757812,-68.42500305175781 -220.927001953125,-34.59199905395508 -220.927001953125,7.142000198364258 C-220.927001953125,48.875999450683594 -186.91799926757812,82.70800018310547 -144.96499633789062,82.70800018310547 C-103.01200103759766,82.70800018310547 -69.00199890136719,48.875999450683594 -69.00199890136719,7.142000198364258z M-99.72200012207031,7.142000198364258 C-99.72200012207031,31.999000549316406 -119.97799682617188,52.14799880981445 -144.96499633789062,52.14799880981445 C-169.95199584960938,52.14799880981445 -190.20799255371094,31.999000549316406 -190.20799255371094,7.142000198364258 C-190.20799255371094,-17.71500015258789 -169.95199584960938,-37.8650016784668 -144.96499633789062,-37.8650016784668 C-119.97799682617188,-37.8650016784668 -99.72200012207031,-17.71500015258789 -99.72200012207031,7.142000198364258z"/></g></g><g transform="matrix(0.7071067690849304,-0.7071067690849304,-0.7071067690849304,-0.7071067690849304,221.54391479492188,216.44540405273438)" opacity="1" style="display: none;"><g opacity="1" transform="matrix(1,0,0,1,0,0)"><path class="secondary" fill="rgb(255,199,56)" fill-opacity="1" d=" M-68.87315368652344,20.126239776611328 C-68.87315368652344,20.185508728027344 -102.88215637207031,20.232383728027344 -144.8351593017578,20.232383728027344 C-186.7881622314453,20.232383728027344 -220.79815673828125,20.185508728027344 -220.79815673828125,20.126239776611328 C-220.79815673828125,20.066970825195312 -186.7881622314453,20.019094467163086 -144.8351593017578,20.019094467163086 C-102.88215637207031,20.019094467163086 -68.87315368652344,20.066970825195312 -68.87315368652344,20.126239776611328z M-99.59215545654297,20.126239776611328 C-99.59215545654297,20.091453552246094 -119.84815979003906,20.061946868896484 -144.8351593017578,20.061946868896484 C-169.82215881347656,20.061946868896484 -190.07916259765625,20.091453552246094 -190.07916259765625,20.126239776611328 C-190.07916259765625,20.16102409362793 -169.82215881347656,20.189529418945312 -144.8351593017578,20.189529418945312 C-119.84815979003906,20.189529418945312 -99.59215545654297,20.16102409362793 -99.59215545654297,20.126239776611328z"/></g></g><g transform="matrix(0.7071067690849304,-0.7071067690849304,-0.7071067690849304,-0.7071067690849304,221.54391479492188,216.44540405273438)" opacity="0.5" style="mix-blend-mode: multiply; display: none;"><g opacity="1" transform="matrix(1,0,0,1,0,0)"><path class="secondary" fill="rgb(255,199,56)" fill-opacity="1" d=" M-68.87315368652344,20.126239776611328 C-68.87315368652344,20.185508728027344 -102.88215637207031,20.232383728027344 -144.8351593017578,20.232383728027344 C-186.7881622314453,20.232383728027344 -220.79815673828125,20.185508728027344 -220.79815673828125,20.126239776611328 C-220.79815673828125,20.066970825195312 -186.7881622314453,20.019094467163086 -144.8351593017578,20.019094467163086 C-102.88215637207031,20.019094467163086 -68.87315368652344,20.066970825195312 -68.87315368652344,20.126239776611328z M-99.59215545654297,20.126239776611328 C-99.59215545654297,20.091453552246094 -119.84815979003906,20.061946868896484 -144.8351593017578,20.061946868896484 C-169.82215881347656,20.061946868896484 -190.07916259765625,20.091453552246094 -190.07916259765625,20.126239776611328 C-190.07916259765625,20.16102409362793 -169.82215881347656,20.189529418945312 -144.8351593017578,20.189529418945312 C-119.84815979003906,20.189529418945312 -99.59215545654297,20.16102409362793 -99.59215545654297,20.126239776611328z"/></g></g></g><g mask="url(#__lottie_element_628_1)" style="display: block;"><g clip-path="url(#__lottie_element_625)" transform="matrix(1,0,0,1,12,4)" opacity="1"><g transform="matrix(0.7071067690849304,-0.7071067690849304,0.7071067690849304,0.7071067690849304,211.443603515625,204.69808959960938)" opacity="1" style="display: none;"><g opacity="1" transform="matrix(1,0,0,1,0,0)"><path class="secondary" fill="rgb(255,199,56)" fill-opacity="1" d=" M-68.97686004638672,-3.6329565048217773 C-68.97686004638672,0.7490242719650269 -102.9859619140625,4.300306797027588 -144.93896484375,4.300306797027588 C-186.8919677734375,4.300306797027588 -220.90185546875,0.7490242719650269 -220.90185546875,-3.6329565048217773 C-220.90185546875,-8.014937400817871 -186.8919677734375,-11.567015647888184 -144.93896484375,-11.567015647888184 C-102.9859619140625,-11.567015647888184 -68.97686004638672,-8.014937400817871 -68.97686004638672,-3.6329565048217773z M-99.69596099853516,-3.632854461669922 C-99.69596099853516,-6.2422776222229 -119.95195770263672,-8.358912467956543 -144.93896484375,-8.358912467956543 C-169.92596435546875,-8.358912467956543 -190.1819610595703,-6.242379665374756 -190.1819610595703,-3.6329565048217773 C-190.1819610595703,-1.0235331058502197 -169.92596435546875,1.0922037363052368 -144.93896484375,1.0922037363052368 C-119.95195770263672,1.0922037363052368 -99.69596099853516,-1.0234310626983643 -99.69596099853516,-3.632854461669922z"/></g></g><g transform="matrix(0.7071067690849304,-0.7071067690849304,0.7071067690849304,0.7071067690849304,211.443603515625,204.69808959960938)" opacity="1" style="display: block;"><g opacity="1" transform="matrix(1,0,0,1,0,0)"><path class="secondary" fill="rgb(255,199,56)" fill-opacity="1" d=" M-69.00199890136719,7.142000198364258 C-69.00199890136719,-34.59199905395508 -103.01200103759766,-68.42500305175781 -144.96499633789062,-68.42500305175781 C-186.91799926757812,-68.42500305175781 -220.927001953125,-34.59199905395508 -220.927001953125,7.142000198364258 C-220.927001953125,48.875999450683594 -186.91799926757812,82.70800018310547 -144.96499633789062,82.70800018310547 C-103.01200103759766,82.70800018310547 -69.00199890136719,48.875999450683594 -69.00199890136719,7.142000198364258z M-99.72200012207031,7.142000198364258 C-99.72200012207031,31.999000549316406 -119.97799682617188,52.14799880981445 -144.96499633789062,52.14799880981445 C-169.95199584960938,52.14799880981445 -190.20799255371094,31.999000549316406 -190.20799255371094,7.142000198364258 C-190.20799255371094,-17.71500015258789 -169.95199584960938,-37.8650016784668 -144.96499633789062,-37.8650016784668 C-119.97799682617188,-37.8650016784668 -99.72200012207031,-17.71500015258789 -99.72200012207031,7.142000198364258z"/></g></g><g transform="matrix(0.7071067690849304,-0.7071067690849304,-0.7071067690849304,-0.7071067690849304,221.54391479492188,216.44540405273438)" opacity="1" style="display: none;"><g opacity="1" transform="matrix(1,0,0,1,0,0)"><path class="secondary" fill="rgb(255,199,56)" fill-opacity="1" d=" M-68.87315368652344,20.126239776611328 C-68.87315368652344,20.185508728027344 -102.88215637207031,20.232383728027344 -144.8351593017578,20.232383728027344 C-186.7881622314453,20.232383728027344 -220.79815673828125,20.185508728027344 -220.79815673828125,20.126239776611328 C-220.79815673828125,20.066970825195312 -186.7881622314453,20.019094467163086 -144.8351593017578,20.019094467163086 C-102.88215637207031,20.019094467163086 -68.87315368652344,20.066970825195312 -68.87315368652344,20.126239776611328z M-99.59215545654297,20.126239776611328 C-99.59215545654297,20.091453552246094 -119.84815979003906,20.061946868896484 -144.8351593017578,20.061946868896484 C-169.82215881347656,20.061946868896484 -190.07916259765625,20.091453552246094 -190.07916259765625,20.126239776611328 C-190.07916259765625,20.16102409362793 -169.82215881347656,20.189529418945312 -144.8351593017578,20.189529418945312 C-119.84815979003906,20.189529418945312 -99.59215545654297,20.16102409362793 -99.59215545654297,20.126239776611328z"/></g></g></g></g><g clip-path="url(#__lottie_element_633)" transform="matrix(1,0,0,1,0,0)" opacity="1" style="display: block;"><g transform="matrix(0.7071067690849304,-0.7071067690849304,0.7071067690849304,0.7071067690849304,211.443603515625,204.69808959960938)" opacity="1" style="display: none;"><path class="secondary" fill="rgb(255,199,56)" fill-opacity="1" d=" M-76.56317138671875,-7.767800331115723 C-76.56317138671875,-7.767800331115723 -75.06073760986328,-1.4198777675628662 -75.14781951904297,7.2012128829956055 C-75.23181915283203,15.662286758422852 -76.52276611328125,22.57307243347168 -76.52276611328125,22.57307243347168 C-76.52276611328125,22.57307243347168 -47.86749267578125,22.474252700805664 -47.86749267578125,22.474252700805664 C-40.94449234008789,22.474252700805664 -35.33149337768555,16.86115074157715 -35.33149337768555,9.938151359558105 C-35.33149337768555,9.938151359558105 -35.33149337768555,9.938151359558105 -35.33149337768555,9.938151359558105 C-35.33149337768555,9.938151359558105 -35.37099838256836,4.986239433288574 -35.37099838256836,4.986239433288574 C-35.37099838256836,4.986239433288574 -35.37099838256836,4.986239433288574 -35.37099838256836,4.986239433288574 C-35.37099838256836,-1.9367607831954956 -40.98400115966797,-7.549760818481445 -47.90700149536133,-7.549760818481445 C-47.90700149536133,-7.549760818481445 -76.56317138671875,-7.767800331115723 -76.56317138671875,-7.767800331115723z"/><g opacity="1" transform="matrix(1,0,0,1,0,0)"/></g><g transform="matrix(0.7071067690849304,-0.7071067690849304,0.7071067690849304,0.7071067690849304,211.443603515625,204.69808959960938)" opacity="1" style="display: block;"><path class="secondary" fill="rgb(255,199,56)" fill-opacity="1" d=" M-83.70600128173828,-30.30699920654297 C-83.70600128173828,-30.30699920654297 -74.43399810791016,-19.19300079345703 -74.51300048828125,7.677999973297119 C-74.59700012207031,36.138999938964844 -83.70600128173828,44.20000076293945 -83.70600128173828,44.20000076293945 C-83.70600128173828,44.20000076293945 -47.90700149536133,44.736000061035156 -47.90700149536133,44.736000061035156 C-40.98400115966797,44.736000061035156 -35.37099838256836,39.12200164794922 -35.37099838256836,32.19900131225586 C-35.37099838256836,32.19900131225586 -35.37099838256836,32.19900131225586 -35.37099838256836,32.19900131225586 C-35.37099838256836,32.19900131225586 -35.37099838256836,-17.236000061035156 -35.37099838256836,-17.236000061035156 C-35.37099838256836,-17.236000061035156 -35.37099838256836,-17.236000061035156 -35.37099838256836,-17.236000061035156 C-35.37099838256836,-24.159000396728516 -40.98400115966797,-29.77199935913086 -47.90700149536133,-29.77199935913086 C-47.90700149536133,-29.77199935913086 -83.70600128173828,-30.30699920654297 -83.70600128173828,-30.30699920654297z"/><g opacity="1" transform="matrix(1,0,0,1,0,0)"/></g><g transform="matrix(0.7071067690849304,-0.7071067690849304,-0.7071067690849304,-0.7071067690849304,221.54391479492188,216.44540405273438)" opacity="1" style="display: none;"><path class="secondary" fill="rgb(255,199,56)" fill-opacity="1" d=" M-75.7606430053711,-5.235433101654053 C-75.7606430053711,-5.235433101654053 -75.13115692138672,0.5770021080970764 -75.2191390991211,7.147643566131592 C-75.30314636230469,13.361648559570312 -75.7156982421875,20.14320182800293 -75.7156982421875,20.14320182800293 C-75.7156982421875,20.14320182800293 -47.86305236816406,19.973058700561523 -47.86305236816406,19.973058700561523 C-40.9400520324707,19.973058700561523 -35.32705307006836,14.360057830810547 -35.32705307006836,7.4370574951171875 C-35.32705307006836,7.4370574951171875 -35.32705307006836,7.4370574951171875 -35.32705307006836,7.4370574951171875 C-35.32705307006836,7.4370574951171875 -35.37099838256836,7.482994556427002 -35.37099838256836,7.482994556427002 C-35.37099838256836,7.482994556427002 -35.37099838256836,7.482994556427002 -35.37099838256836,7.482994556427002 C-35.37099838256836,0.5599947571754456 -40.98400115966797,-5.053005218505859 -47.90700149536133,-5.053005218505859 C-47.90700149536133,-5.053005218505859 -75.7606430053711,-5.235433101654053 -75.7606430053711,-5.235433101654053z"/><g opacity="1" transform="matrix(1,0,0,1,0,0)"/></g></g><g transform="matrix(1,0,0,1,215,215)" opacity="1" style="display: none;"><g opacity="1" transform="matrix(1,0,0,1,0,0)"><path stroke-linecap="butt" stroke-linejoin="miter" fill-opacity="0" stroke-miterlimit="4" class="secondary" stroke="rgb(255,199,56)" stroke-opacity="1" stroke-width="2" d="M0 0"/></g><g opacity="1" transform="matrix(1,0,0,1,0,0)"><path class="secondary" fill="rgb(255,199,56)" fill-opacity="1" d=" M-48.000003814697266,40.75 C-29.500017166137695,57.7499885559082 -6.308061599731445,115.55596923828125 -50.53904342651367,154.94195556640625 C-101.0000228881836,199.87493896484375 -153.375,156 -161.25,143.5 C-161.29400634765625,143.4290008544922 -161.2939910888672,143.17901611328125 -161.24998474121094,143.25001525878906 C-153.37496948242188,155.87503051757812 -101.125,200.1249542236328 -49.745025634765625,154.24197387695312 C-3.4590461254119873,112.90798950195312 -32.499996185302734,55.2500114440918 -47.87498474121094,40.625022888183594 C-47.91798400878906,40.584022521972656 -48.044002532958984,40.709999084472656 -48.000003814697266,40.75z"/></g></g><g transform="matrix(1,0,0,1,215,215)" opacity="1" style="display: none;"><g opacity="1" transform="matrix(1,0,0,1,0,0)"><path stroke-linecap="butt" stroke-linejoin="miter" fill-opacity="0" stroke-miterlimit="4" class="secondary" stroke="rgb(255,199,56)" stroke-opacity="1" stroke-width="2" d="M0 0"/></g><g opacity="1" transform="matrix(1,0,0,1,0,0)"><path class="secondary" fill="rgb(255,199,56)" fill-opacity="1" d=" M-48.00000762939453,40.74998474121094 C-29.500043869018555,57.74995422363281 -6.30815315246582,115.55592346191406 -50.53910446166992,154.94189453125 C-101.00003814697266,199.8748321533203 -153.37501525878906,155.99996948242188 -161.25,143.5 C-161.29400634765625,143.4290008544922 -161.29396057128906,143.1790313720703 -161.24996948242188,143.25003051757812 C-153.37498474121094,155.87501525878906 -101.12506103515625,200.1249237060547 -49.74507141113281,154.24192810058594 C-3.459091901779175,112.9079360961914 -32.500003814697266,55.24999237060547 -47.87497329711914,40.62501907348633 C-47.91797637939453,40.58401870727539 -48.044010162353516,40.70998764038086 -48.00000762939453,40.74998474121094z"/></g></g><g transform="matrix(0.7071067690849304,-0.7071067690849304,0.7071067690849304,0.7071067690849304,211.443603515625,204.69808959960938)" opacity="1" style="display: none;"><g opacity="1" transform="matrix(1,0,0,1,0,0)"><path stroke-linecap="round" stroke-linejoin="round" fill-opacity="0" class="primary" stroke="rgb(18,19,49)" stroke-opacity="1" stroke-width="7" d=" M-37.3876953125,21.485736846923828 C-37.3876953125,21.485736846923828 112.91593170166016,21.014827728271484 112.91593170166016,21.014827728271484 C112.91593170166016,21.014827728271484 112.91593170166016,23.981863021850586 112.91593170166016,23.981863021850586 C112.91593170166016,23.981863021850586 144.33282470703125,23.981863021850586 144.33282470703125,23.981863021850586 C144.33282470703125,23.981863021850586 144.33282470703125,22.138164520263672 144.33282470703125,22.138164520263672 C144.33282470703125,22.138164520263672 175.7498321533203,22.138164520263672 175.7498321533203,22.138164520263672 C175.7498321533203,22.138164520263672 175.7498321533203,23.981863021850586 175.7498321533203,23.981863021850586 C175.7498321533203,23.981863021850586 207.1659393310547,23.981863021850586 207.1659393310547,23.981863021850586 C207.1659393310547,23.981863021850586 207.1659393310547,21.014827728271484 207.1659393310547,21.014827728271484 C207.1659393310547,21.014827728271484 220.13682556152344,21.007476806640625 220.13682556152344,21.007476806640625 C226.27183532714844,21.007476806640625 231.131591796875,16.932382583618164 231.131591796875,10.797382354736328 C231.131591796875,10.797382354736328 231.24383544921875,5.661379337310791 231.24383544921875,5.661379337310791 C231.24383544921875,-0.47362056374549866 226.27093505859375,-5.446620464324951 220.13682556152344,-5.446620464324951 C220.13682556152344,-5.446620464324951 -37.3876953125,-4.9683613777160645 -37.3876953125,-4.9683613777160645"/></g></g><g transform="matrix(0.7071067690849304,-0.7071067690849304,0.7071067690849304,0.7071067690849304,211.443603515625,204.69808959960938)" opacity="1" style="display: none;"><g opacity="1" transform="matrix(1,0,0,1,0,0)"><path stroke-linecap="round" stroke-linejoin="round" fill-opacity="0" class="primary" stroke="rgb(18,19,49)" stroke-opacity="1" stroke-width="7" d=" M-68.90599822998047,-3.6402573585510254 C-68.90599822998047,-3.6402573585510254 -68.90599822998047,18.695117950439453 -68.90599822998047,18.695117950439453 M-220.875,-3.624330520629883 C-220.875,-3.624330520629883 -220.875,18.69828224182129 -220.875,18.69828224182129 M-68.88616943359375,18.81465721130371 C-68.88616943359375,23.196638107299805 -102.89527130126953,26.747920989990234 -144.8482666015625,26.747920989990234 C-186.80126953125,26.747920989990234 -220.81117248535156,23.196638107299805 -220.81117248535156,18.81465721130371 C-220.81117248535156,14.432676315307617 -186.80126953125,10.880598068237305 -144.8482666015625,10.880598068237305 C-102.89527130126953,10.880598068237305 -68.88616943359375,14.432676315307617 -68.88616943359375,18.81465721130371z M-99.60527038574219,18.81475830078125 C-99.60527038574219,21.424182891845703 -119.86127471923828,23.539817810058594 -144.8482666015625,23.539817810058594 C-169.83526611328125,23.539817810058594 -190.0921630859375,21.42407989501953 -190.0921630859375,18.81465721130371 C-190.0921630859375,16.205232620239258 -169.83526611328125,14.088701248168945 -144.8482666015625,14.088701248168945 C-119.86127471923828,14.088701248168945 -99.60527038574219,16.20533561706543 -99.60527038574219,18.81475830078125z M-76.03833770751953,22.554338455200195 C-76.03833770751953,22.554338455200195 -48.01744079589844,22.73733901977539 -48.01744079589844,22.73733901977539 C-41.09444046020508,22.73733901977539 -35.481441497802734,17.12333869934082 -35.481441497802734,10.200339317321777 C-35.481441497802734,10.200339317321777 -35.481441497802734,10.200339317321777 -35.481441497802734,10.200339317321777 C-35.481441497802734,10.200339317321777 -35.664615631103516,5.173901081085205 -35.664615631103516,5.173901081085205 C-35.664615631103516,5.173901081085205 -35.664615631103516,5.173901081085205 -35.664615631103516,5.173901081085205 C-35.664615631103516,-1.749098777770996 -41.27761459350586,-7.362098693847656 -48.20061492919922,-7.362098693847656 C-48.20061492919922,-7.362098693847656 -76.22061157226562,-7.544098854064941 -76.22061157226562,-7.544098854064941"/></g><g opacity="1" transform="matrix(1,0,0,1,0,0)"><path stroke-linecap="round" stroke-linejoin="round" fill-opacity="0" class="primary" stroke="rgb(18,19,49)" stroke-opacity="1" stroke-width="7" d=" M-68.97686004638672,-3.6329565048217773 C-68.97686004638672,-8.014937400817871 -102.9859619140625,-11.567015647888184 -144.93896484375,-11.567015647888184 C-186.89199829101562,-11.567000389099121 -220.9010009765625,-8.015000343322754 -220.90199279785156,-3.632999897003174"/></g></g><g transform="matrix(0.7071067690849304,-0.7071067690849304,0.7071067690849304,0.7071067690849304,211.443603515625,204.69808959960938)" opacity="1" style="display: block;"><g opacity="1" transform="matrix(1,0,0,1,0,0)"><path stroke-linecap="round" stroke-linejoin="round" fill-opacity="0" class="primary" stroke="rgb(18,19,49)" stroke-opacity="1" stroke-width="7" d=" M-35.37099838256836,25.871999740600586 C-35.37099838256836,25.871999740600586 112.8010025024414,25.569000244140625 112.8010025024414,25.569000244140625 C112.8010025024414,25.569000244140625 112.8010025024414,54.604000091552734 112.8010025024414,54.604000091552734 C112.8010025024414,54.604000091552734 144.2169952392578,54.604000091552734 144.2169952392578,54.604000091552734 C144.2169952392578,54.604000091552734 144.2169952392578,36.5629997253418 144.2169952392578,36.5629997253418 C144.2169952392578,36.5629997253418 175.63400268554688,36.5629997253418 175.63400268554688,36.5629997253418 C175.63400268554688,36.5629997253418 175.63400268554688,54.604000091552734 175.63400268554688,54.604000091552734 C175.63400268554688,54.604000091552734 207.05099487304688,54.604000091552734 207.05099487304688,54.604000091552734 C207.05099487304688,54.604000091552734 207.05099487304688,25.569000244140625 207.05099487304688,25.569000244140625 C207.05099487304688,25.569000244140625 220.02099609375,25.496999740600586 220.02099609375,25.496999740600586 C226.156005859375,25.496999740600586 231.1280059814453,20.52400016784668 231.1280059814453,14.388999938964844 C231.1280059814453,14.388999938964844 231.1280059814453,-0.17499999701976776 231.1280059814453,-0.17499999701976776 C231.1280059814453,-6.309999942779541 226.156005859375,-11.282999992370605 220.02099609375,-11.282999992370605 C220.02099609375,-11.282999992370605 -35.37099838256836,-10.907999992370605 -35.37099838256836,-10.907999992370605"/></g></g><g transform="matrix(0.7071067690849304,-0.7071067690849304,0.7071067690849304,0.7071067690849304,211.443603515625,204.69808959960938)" opacity="1" style="display: block;"><g opacity="1" transform="matrix(1,0,0,1,0,0)"><path stroke-linecap="round" stroke-linejoin="round" fill-opacity="0" class="primary" stroke="rgb(18,19,49)" stroke-opacity="1" stroke-width="7" d=" M-68.90599822998047,7.218999862670898 C-68.90599822998047,7.218999862670898 -68.90599822998047,7.218999862670898 -68.90599822998047,7.218999862670898 M-220.875,7.375 C-220.875,7.375 -220.875,7.25 -220.875,7.25 M-69.00199890136719,7.142000198364258 C-69.00199890136719,-34.59199905395508 -103.01200103759766,-68.42500305175781 -144.96499633789062,-68.42500305175781 C-186.91799926757812,-68.42500305175781 -220.927001953125,-34.59199905395508 -220.927001953125,7.142000198364258 C-220.927001953125,48.875999450683594 -186.91799926757812,82.70800018310547 -144.96499633789062,82.70800018310547 C-103.01200103759766,82.70800018310547 -69.00199890136719,48.875999450683594 -69.00199890136719,7.142000198364258z M-99.72200012207031,7.142000198364258 C-99.72200012207031,-17.71500015258789 -119.97799682617188,-37.8650016784668 -144.96499633789062,-37.8650016784668 C-169.95199584960938,-37.8650016784668 -190.20799255371094,-17.71500015258789 -190.20799255371094,7.142000198364258 C-190.20799255371094,31.999000549316406 -169.95199584960938,52.14799880981445 -144.96499633789062,52.14799880981445 C-119.97799682617188,52.14799880981445 -99.72200012207031,31.999000549316406 -99.72200012207031,7.142000198364258z M-69.00199890136719,7.142000198364258 C-69.00199890136719,-34.59199905395508 -103.01200103759766,-68.42500305175781 -144.96499633789062,-68.42500305175781 C-186.91799926757812,-68.42500305175781 -220.927001953125,-34.59199905395508 -220.927001953125,7.142000198364258 C-220.927001953125,48.875999450683594 -186.91799926757812,82.70800018310547 -144.96499633789062,82.70800018310547 C-103.01200103759766,82.70800018310547 -69.00199890136719,48.875999450683594 -69.00199890136719,7.142000198364258z M-99.72200012207031,7.142000198364258 C-99.72200012207031,-17.71500015258789 -119.97799682617188,-37.8650016784668 -144.96499633789062,-37.8650016784668 C-169.95199584960938,-37.8650016784668 -190.20799255371094,-17.71500015258789 -190.20799255371094,7.142000198364258 C-190.20799255371094,31.999000549316406 -169.95199584960938,52.14799880981445 -144.96499633789062,52.14799880981445 C-119.97799682617188,52.14799880981445 -99.72200012207031,31.999000549316406 -99.72200012207031,7.142000198364258z M-75.927001953125,44.553001403808594 C-75.927001953125,44.553001403808594 -47.90700149536133,44.736000061035156 -47.90700149536133,44.736000061035156 C-40.98400115966797,44.736000061035156 -35.37099838256836,39.12200164794922 -35.37099838256836,32.19900131225586 C-35.37099838256836,32.19900131225586 -35.37099838256836,32.19900131225586 -35.37099838256836,32.19900131225586 C-35.37099838256836,32.19900131225586 -35.37099838256836,-17.236000061035156 -35.37099838256836,-17.236000061035156 C-35.37099838256836,-17.236000061035156 -35.37099838256836,-17.236000061035156 -35.37099838256836,-17.236000061035156 C-35.37099838256836,-24.159000396728516 -40.98400115966797,-29.77199935913086 -47.90700149536133,-29.77199935913086 C-47.90700149536133,-29.77199935913086 -75.927001953125,-29.95400047302246 -75.927001953125,-29.95400047302246"/></g></g><g transform="matrix(0.7071067690849304,-0.7071067690849304,-0.7071067690849304,-0.7071067690849304,221.54391479492188,216.44540405273438)" opacity="1" style="display: none;"><g opacity="1" transform="matrix(1,0,0,1,0,0)"><path stroke-linecap="round" stroke-linejoin="round" fill-opacity="0" class="primary" stroke="rgb(18,19,49)" stroke-opacity="1" stroke-width="7" d=" M-37.61427688598633,20.992921829223633 C-37.61427688598633,20.992921829223633 112.92884826660156,20.503149032592773 112.92884826660156,20.503149032592773 C112.92884826660156,20.503149032592773 112.92884826660156,20.54134750366211 112.92884826660156,20.54134750366211 C112.92884826660156,20.54134750366211 144.34584045410156,20.54134750366211 144.34584045410156,20.54134750366211 C144.34584045410156,20.54134750366211 144.34584045410156,20.51747703552246 144.34584045410156,20.51747703552246 C144.34584045410156,20.51747703552246 175.76284790039062,20.51747703552246 175.76284790039062,20.51747703552246 C175.76284790039062,20.51747703552246 175.76284790039062,20.54134750366211 175.76284790039062,20.54134750366211 C175.76284790039062,20.54134750366211 207.17884826660156,20.54134750366211 207.17884826660156,20.54134750366211 C207.17884826660156,20.54134750366211 207.17884826660156,20.503149032592773 207.17884826660156,20.503149032592773 C207.17884826660156,20.503149032592773 220.14984130859375,20.503061294555664 220.14984130859375,20.503061294555664 C226.28485107421875,20.503061294555664 231.13198852539062,16.52884864807129 231.13198852539062,10.39384937286377 C231.13198852539062,10.39384937286377 231.25685119628906,6.317119598388672 231.25685119628906,6.317119598388672 C231.25685119628906,0.18211951851844788 226.28384399414062,-4.7908806800842285 220.14984130859375,-4.7908806800842285 C220.14984130859375,-4.7908806800842285 -37.61427688598633,-4.301019668579102 -37.61427688598633,-4.301019668579102"/></g></g><g transform="matrix(0.7071067690849304,-0.7071067690849304,-0.7071067690849304,-0.7071067690849304,221.54391479492188,216.44540405273438)" opacity="1" style="display: none;"><g opacity="1" transform="matrix(1,0,0,1,0,0)"><path stroke-linecap="round" stroke-linejoin="round" fill-opacity="0" class="primary" stroke="rgb(18,19,49)" stroke-opacity="1" stroke-width="7" d=" M-68.90599822998047,-4.860337257385254 C-68.90599822998047,-4.860337257385254 -68.90599822998047,19.98450469970703 -68.90599822998047,19.98450469970703 M-220.875,-4.8601484298706055 C-220.875,-4.8601484298706055 -220.875,19.984542846679688 -220.875,19.984542846679688 M-99.94573211669922,-4.946326732635498 C-99.94573211669922,-4.91154146194458 -120.20172882080078,-4.883035182952881 -145.18873596191406,-4.883035182952881 C-170.1757354736328,-4.883035182952881 -190.43173217773438,-4.91154146194458 -190.43173217773438,-4.946326732635498 C-190.43173217773438,-4.981111526489258 -170.1757354736328,-5.009619235992432 -145.18873596191406,-5.009619235992432 C-120.20172882080078,-5.009619235992432 -99.94573211669922,-4.981111526489258 -99.94573211669922,-4.946326732635498z M-76.05084991455078,20.08270263671875 C-76.05084991455078,20.08270263671875 -48.029850006103516,20.265703201293945 -48.029850006103516,20.265703201293945 C-41.106849670410156,20.265703201293945 -35.49385070800781,14.651702880859375 -35.49385070800781,7.728703498840332 C-35.49385070800781,7.728703498840332 -35.49385070800781,7.728703498840332 -35.49385070800781,7.728703498840332 C-35.49385070800781,7.728703498840332 -35.69760513305664,7.691741466522217 -35.69760513305664,7.691741466522217 C-35.69760513305664,7.691741466522217 -35.69760513305664,7.691741466522217 -35.69760513305664,7.691741466522217 C-35.69760513305664,0.7687413692474365 -41.310604095458984,-4.844258785247803 -48.233604431152344,-4.844258785247803 C-48.233604431152344,-4.844258785247803 -76.25360107421875,-5.02625846862793 -76.25360107421875,-5.02625846862793"/></g><g opacity="1" transform="matrix(1,0,0,1,0,0)"><path stroke-linecap="round" stroke-linejoin="round" fill-opacity="0" class="primary" stroke="rgb(18,19,49)" stroke-opacity="1" stroke-width="7" d=" M-68.97403717041016,-4.843451499938965 C-68.97403717041016,-4.784182071685791 -102.9830322265625,-4.737307548522949 -144.93603515625,-4.737307548522949 C-186.8890380859375,-4.737307548522949 -220.89903259277344,-4.784182071685791 -220.89903259277344,-4.843451499938965 C-220.89903259277344,-4.9027204513549805 -186.8890380859375,-4.950595378875732 -144.93603515625,-4.950595378875732 C-102.9830322265625,-4.950595378875732 -68.97403717041016,-4.9027204513549805 -68.97403717041016,-4.843451499938965z"/></g><g opacity="1" transform="matrix(1,0,0,1,0,0)"><path stroke-linecap="round" stroke-linejoin="round" fill-opacity="0" class="primary" stroke="rgb(18,19,49)" stroke-opacity="1" stroke-width="7" d=" M-68.87315368652344,20.126239776611328 C-68.87315368652344,20.066970825195312 -102.88215637207031,20.019094467163086 -144.8351593017578,20.019094467163086 C-186.78799438476562,20.018999099731445 -220.79800415039062,20.066999435424805 -220.79800415039062,20.125999450683594"/></g></g></g><g clip-path="url(#__lottie_element_1255)" transform="matrix(1,0,0,1,0,0)" opacity="1" style="display: block;"><g transform="matrix(1,0,0,1,1,-2.5)" opacity="1" style="display: block;"><g opacity="1" transform="matrix(1,0,0,1,285.3479919433594,144.91700744628906)"><path class="secondary" fill="rgb(112,102,237)" fill-opacity="1" d=" M-110.74800109863281,81.52200317382812 C-110.74800109863281,81.52200317382812 72.0719985961914,-101.8280029296875 72.0719985961914,-101.8280029296875 C74.15499877929688,-103.91100311279297 76.98100280761719,-105.08200073242188 79.927001953125,-105.08200073242188 C82.87300109863281,-105.08200073242188 85.697998046875,-103.91100311279297 87.78199768066406,-101.8280029296875 C87.78199768066406,-101.8280029296875 98.08200073242188,-91.52799987792969 98.08200073242188,-91.52799987792969 C100.16500091552734,-89.44499969482422 101.33499908447266,-86.61900329589844 101.33499908447266,-83.6729965209961 C101.33499908447266,-80.72699737548828 100.16500091552734,-77.9010009765625 98.08200073242188,-75.81800079345703 C98.08200073242188,-75.81800079345703 88.96199798583984,-66.5979995727539 88.96199798583984,-66.5979995727539 C88.96199798583984,-66.5979995727539 107.37200164794922,-48.1879997253418 107.37200164794922,-48.1879997253418 C107.93299865722656,-47.625999450683594 108.2490005493164,-46.862998962402344 108.2490005493164,-46.06800079345703 C108.2490005493164,-45.27299880981445 107.93299865722656,-44.5099983215332 107.37200164794922,-43.948001861572266 C107.37200164794922,-43.948001861572266 89.37200164794922,-25.947999954223633 89.37200164794922,-25.947999954223633 C89.09300231933594,-25.667999267578125 88.76200103759766,-25.445999145507812 88.39700317382812,-25.295000076293945 C88.03199768066406,-25.143999099731445 87.64099884033203,-25.06599998474121 87.24700164794922,-25.06599998474121 C86.85199737548828,-25.06599998474121 86.46099853515625,-25.143999099731445 86.09600067138672,-25.295000076293945 C85.73100280761719,-25.445999145507812 85.4000015258789,-25.667999267578125 85.12200164794922,-25.947999954223633 C85.12200164794922,-25.947999954223633 74.49199676513672,-36.577999114990234 74.49199676513672,-36.577999114990234 C74.49199676513672,-36.577999114990234 52.27199935913086,-14.368000030517578 52.27199935913086,-14.368000030517578 C52.27199935913086,-14.368000030517578 62.9119987487793,-3.7279999256134033 62.9119987487793,-3.7279999256134033 C63.472999572753906,-3.1649999618530273 63.78900146484375,-2.4030001163482666 63.78900146484375,-1.6080000400543213 C63.78900146484375,-0.8130000233650208 63.472999572753906,-0.05000000074505806 62.9119987487793,0.5120000243186951 C62.9119987487793,0.5120000243186951 44.9119987487793,18.511999130249023 44.9119987487793,18.511999130249023 C44.632999420166016,18.79199981689453 44.301998138427734,19.013999938964844 43.9370002746582,19.165000915527344 C43.571998596191406,19.31599998474121 43.180999755859375,19.393999099731445 42.7869987487793,19.393999099731445 C42.391998291015625,19.393999099731445 42.000999450683594,19.31599998474121 41.63600158691406,19.165000915527344 C41.27199935913086,19.013999938964844 40.939998626708984,18.79199981689453 40.6619987487793,18.511999130249023 C40.6619987487793,18.511999130249023 22.312000274658203,0.0820000022649765 22.312000274658203,0.0820000022649765 C22.312000274658203,0.0820000022649765 -84.74800109863281,107.58200073242188 -84.74800109863281,107.58200073242188 C-84.74800109863281,107.58200073242188 -110.74800109863281,81.52200317382812 -110.74800109863281,81.52200317382812z"/></g><g opacity="0.5" transform="matrix(1,0,0,1,278.4949951171875,135.27200317382812)" style="mix-blend-mode: multiply;"><g opacity="1" transform="matrix(1,0,0,1,0,0)"><path class="secondary" fill="rgb(112,102,237)" fill-opacity="1" d=" M85.68499755859375,-85.4229965209961 C87.76799774169922,-87.50599670410156 90.59400177001953,-88.677001953125 93.54000091552734,-88.677001953125 C96.48600006103516,-88.677001953125 99.31099700927734,-87.50599670410156 101.3949966430664,-85.4229965209961 C101.3949966430664,-85.4229965209961 94.63500213623047,-92.18299865722656 94.63500213623047,-92.18299865722656 C92.5510025024414,-94.26599884033203 89.72599792480469,-95.43699645996094 86.77999877929688,-95.43699645996094 C83.83399963378906,-95.43699645996094 81.00800323486328,-94.26599884033203 78.92500305175781,-92.18299865722656 C78.92500305175781,-92.18299865722656 -103.8949966430664,91.16699981689453 -103.8949966430664,91.16699981689453 C-103.8949966430664,91.16699981689453 -97.13500213623047,97.93699645996094 -97.13500213623047,97.93699645996094 C-97.13500213623047,97.93699645996094 85.68499755859375,-85.4229965209961 85.68499755859375,-85.4229965209961z"/></g></g></g><g transform="matrix(1,0,0,1,1,-2.5)" opacity="1" style="display: block;"><g opacity="1" transform="matrix(1,0,0,1,285.3479919433594,144.91700744628906)"><path stroke-linecap="round" stroke-linejoin="round" fill-opacity="0" class="primary" stroke="rgb(18,19,49)" stroke-opacity="1" stroke-width="10.5" d=" M-110.74800109863281,81.52200317382812 C-110.74800109863281,81.52200317382812 72.0719985961914,-101.8280029296875 72.0719985961914,-101.8280029296875 C74.15499877929688,-103.91100311279297 76.98100280761719,-105.08200073242188 79.927001953125,-105.08200073242188 C82.87300109863281,-105.08200073242188 85.697998046875,-103.91100311279297 87.78199768066406,-101.8280029296875 C87.78199768066406,-101.8280029296875 98.08200073242188,-91.52799987792969 98.08200073242188,-91.52799987792969 C100.16500091552734,-89.44499969482422 101.33499908447266,-86.61900329589844 101.33499908447266,-83.6729965209961 C101.33499908447266,-80.72699737548828 100.16500091552734,-77.9010009765625 98.08200073242188,-75.81800079345703 C98.08200073242188,-75.81800079345703 88.96199798583984,-66.5979995727539 88.96199798583984,-66.5979995727539 C88.96199798583984,-66.5979995727539 107.37200164794922,-48.1879997253418 107.37200164794922,-48.1879997253418 C107.93299865722656,-47.625999450683594 108.2490005493164,-46.862998962402344 108.2490005493164,-46.06800079345703 C108.2490005493164,-45.27299880981445 107.93299865722656,-44.5099983215332 107.37200164794922,-43.948001861572266 C107.37200164794922,-43.948001861572266 89.37200164794922,-25.947999954223633 89.37200164794922,-25.947999954223633 C89.09300231933594,-25.667999267578125 88.76200103759766,-25.445999145507812 88.39700317382812,-25.295000076293945 C88.03199768066406,-25.143999099731445 87.64099884033203,-25.06599998474121 87.24700164794922,-25.06599998474121 C86.85199737548828,-25.06599998474121 86.46099853515625,-25.143999099731445 86.09600067138672,-25.295000076293945 C85.73100280761719,-25.445999145507812 85.4000015258789,-25.667999267578125 85.12200164794922,-25.947999954223633 C85.12200164794922,-25.947999954223633 74.49199676513672,-36.577999114990234 74.49199676513672,-36.577999114990234 C74.49199676513672,-36.577999114990234 52.27199935913086,-14.368000030517578 52.27199935913086,-14.368000030517578 C52.27199935913086,-14.368000030517578 62.9119987487793,-3.7279999256134033 62.9119987487793,-3.7279999256134033 C63.472999572753906,-3.1649999618530273 63.78900146484375,-2.4030001163482666 63.78900146484375,-1.6080000400543213 C63.78900146484375,-0.8130000233650208 63.472999572753906,-0.05000000074505806 62.9119987487793,0.5120000243186951 C62.9119987487793,0.5120000243186951 44.9119987487793,18.511999130249023 44.9119987487793,18.511999130249023 C44.632999420166016,18.79199981689453 44.301998138427734,19.013999938964844 43.9370002746582,19.165000915527344 C43.571998596191406,19.31599998474121 43.180999755859375,19.393999099731445 42.7869987487793,19.393999099731445 C42.391998291015625,19.393999099731445 42.000999450683594,19.31599998474121 41.63600158691406,19.165000915527344 C41.27199935913086,19.013999938964844 40.939998626708984,18.79199981689453 40.6619987487793,18.511999130249023 C40.6619987487793,18.511999130249023 22.312000274658203,0.0820000022649765 22.312000274658203,0.0820000022649765 C22.312000274658203,0.0820000022649765 -84.74800109863281,107.58200073242188 -84.74800109863281,107.58200073242188 C-84.74800109863281,107.58200073242188 -110.74800109863281,81.52200317382812 -110.74800109863281,81.52200317382812z"/></g></g><g transform="matrix(1,0,0,1,171.73699951171875,254.281005859375)" opacity="1" style="display: block;"><g opacity="1" transform="matrix(1,0,0,1,0,0)"><path class="secondary" fill="rgb(112,102,237)" fill-opacity="1" d=" M10.92300033569336,41.027000427246094 C10.92300033569336,41.027000427246094 36.84199905395508,15.366999626159668 36.84199905395508,15.366999626159668 C39.189998626708984,13.015999794006348 40.507999420166016,9.829999923706055 40.507999420166016,6.507999897003174 C40.507999420166016,3.184999942779541 39.189998626708984,-0.0010000000474974513 36.84199905395508,-2.3519999980926514 C36.84199905395508,-2.3519999980926514 1.8420000076293945,-37.35200119018555 1.8420000076293945,-37.35200119018555 C0.6790000200271606,-38.516998291015625 -0.703000009059906,-39.441001892089844 -2.2239999771118164,-40.071998596191406 C-3.744999885559082,-40.702999114990234 -5.375999927520752,-41.027000427246094 -7.0229997634887695,-41.027000427246094 C-8.668999671936035,-41.027000427246094 -10.300000190734863,-40.702999114990234 -11.821000099182129,-40.071998596191406 C-13.342000007629395,-39.441001892089844 -14.723999977111816,-38.516998291015625 -15.88700008392334,-37.35200119018555 C-15.88700008392334,-37.35200119018555 -40.507999420166016,-12.982000350952148 -40.507999420166016,-12.982000350952148 C-40.507999420166016,-12.982000350952148 10.92300033569336,41.027000427246094 10.92300033569336,41.027000427246094z"/></g></g><g transform="matrix(1,0,0,1,171.73699951171875,254.281005859375)" opacity="1" style="display: block;"><g opacity="1" transform="matrix(1,0,0,1,0,0)"><path stroke-linecap="round" stroke-linejoin="round" fill-opacity="0" class="primary" stroke="rgb(18,19,49)" stroke-opacity="1" stroke-width="10.5" d=" M10.92300033569336,41.027000427246094 C10.92300033569336,41.027000427246094 36.84199905395508,15.366999626159668 36.84199905395508,15.366999626159668 C39.189998626708984,13.015999794006348 40.507999420166016,9.829999923706055 40.507999420166016,6.507999897003174 C40.507999420166016,3.184999942779541 39.189998626708984,-0.0010000000474974513 36.84199905395508,-2.3519999980926514 C36.84199905395508,-2.3519999980926514 1.8420000076293945,-37.35200119018555 1.8420000076293945,-37.35200119018555 C0.6790000200271606,-38.516998291015625 -0.703000009059906,-39.441001892089844 -2.2239999771118164,-40.071998596191406 C-3.744999885559082,-40.702999114990234 -5.375999927520752,-41.027000427246094 -7.0229997634887695,-41.027000427246094 C-8.668999671936035,-41.027000427246094 -10.300000190734863,-40.702999114990234 -11.821000099182129,-40.071998596191406 C-13.342000007629395,-39.441001892089844 -14.723999977111816,-38.516998291015625 -15.88700008392334,-37.35200119018555 C-15.88700008392334,-37.35200119018555 -40.507999420166016,-12.982000350952148 -40.507999420166016,-12.982000350952148 C-40.507999420166016,-12.982000350952148 10.92300033569336,41.027000427246094 10.92300033569336,41.027000427246094z"/></g></g><g transform="matrix(1,0,0,1,1,-2.5)" opacity="1" style="display: block;"><g opacity="1" transform="matrix(1,0,-0.000003937802375730826,1,112.31400299072266,314.2030029296875)"><path class="secondary" fill="rgb(112,102,237)" fill-opacity="1" d=" M53.76599884033203,-53.71500015258789 C43.13999938964844,-64.35099792480469 29.597999572753906,-71.59600067138672 14.852999687194824,-74.53399658203125 C0.10899999737739563,-77.4729995727539 -15.175999641418457,-75.97200012207031 -29.066999435424805,-70.22100067138672 C-42.95800018310547,-64.47100067138672 -54.83300018310547,-54.72999954223633 -63.1870002746582,-42.23099899291992 C-71.54100036621094,-29.731000900268555 -76,-15.034000396728516 -76,0 C-76,15.03499984741211 -71.54100036621094,29.731000900268555 -63.1870002746582,42.23099899291992 C-54.83300018310547,54.73099899291992 -42.95800018310547,64.47200012207031 -29.066999435424805,70.22200012207031 C-15.175999641418457,75.97200012207031 0.10899999737739563,77.4729995727539 14.852999687194824,74.53500366210938 C29.597999572753906,71.59600067138672 43.13999938964844,64.35099792480469 53.76599884033203,53.71500015258789 C68.00299835205078,39.4640007019043 76,20.143999099731445 76,0 C76,-20.143999099731445 68.00299835205078,-39.4640007019043 53.76599884033203,-53.71500015258789z M32.04600143432617,31.985000610351562 C25.718000411987305,38.308998107910156 17.656999588012695,42.6150016784668 8.881999969482422,44.358001708984375 C0.10700000077486038,46.10100173950195 -8.98799991607666,45.20399856567383 -17.253000259399414,41.77899932861328 C-25.51799964904785,38.354000091552734 -32.58100128173828,32.55500030517578 -37.55099868774414,25.115999221801758 C-42.520999908447266,17.677000045776367 -45.17399978637695,8.932000160217285 -45.17399978637695,-0.014999999664723873 C-45.17399978637695,-8.961000442504883 -42.520999908447266,-17.707000732421875 -37.55099868774414,-25.145999908447266 C-32.58100128173828,-32.584999084472656 -25.51799964904785,-38.382999420166016 -17.253000259399414,-41.80799865722656 C-8.98799991607666,-45.233001708984375 0.10700000077486038,-46.13100051879883 8.881999969482422,-44.38800048828125 C17.656999588012695,-42.64500045776367 25.718000411987305,-38.3390007019043 32.04600143432617,-32.01499938964844 C36.249000549316406,-27.812999725341797 39.58300018310547,-22.823999404907227 41.856998443603516,-17.333999633789062 C44.13199996948242,-11.843000411987305 45.303001403808594,-5.958000183105469 45.303001403808594,-0.014999999664723873 C45.303001403808594,5.927999973297119 44.13199996948242,11.812999725341797 41.856998443603516,17.304000854492188 C39.58300018310547,22.79400062561035 36.249000549316406,27.783000946044922 32.04600143432617,31.985000610351562z"/></g><g opacity="0.5" transform="matrix(1,0,-0.000003937802375730826,1,89.38300323486328,313.30999755859375)" style="mix-blend-mode: multiply;"><g opacity="1" transform="matrix(1,0,0,1,0,0)"><path class="secondary" fill="rgb(112,102,237)" fill-opacity="1" d=" M-32.69300079345703,39.29999923706055 C-41.667999267578125,21.23200035095215 -43.12900161743164,0.3479999899864197 -36.75899887084961,-18.795000076293945 C-30.388999938964844,-37.9370002746582 -16.704999923706055,-53.78300094604492 1.3070000410079956,-62.869998931884766 C17.264999389648438,-70.93800354003906 35.57400131225586,-73.06500244140625 52.957000732421875,-68.87000274658203 C42.810001373291016,-73.25700378417969 31.822999954223633,-75.35900115966797 20.773000717163086,-75.0270004272461 C9.723999977111816,-74.69499969482422 -1.1180000305175781,-71.93800354003906 -10.982999801635742,-66.94999694824219 C-28.9950008392334,-57.862998962402344 -42.67900085449219,-42.018001556396484 -49.04899978637695,-22.875999450683594 C-55.41899871826172,-3.7330000400543213 -53.95800018310547,17.152999877929688 -44.983001708984375,35.22100067138672 C-40.07899856567383,45.12099838256836 -33.05799865722656,53.81999969482422 -24.41699981689453,60.70500183105469 C-15.776000022888184,67.58899688720703 -5.728000164031982,72.49099731445312 5.017000198364258,75.06099700927734 C-11.39900016784668,67.99400329589844 -24.766000747680664,55.31800079345703 -32.69300079345703,39.29999923706055z"/></g></g></g><g transform="matrix(1,0,0,1,1,-2.5)" opacity="1" style="display: block;"><g opacity="1" transform="matrix(1,0,-0.000003937802375730826,1,112.31400299072266,314.2030029296875)"><path stroke-linecap="round" stroke-linejoin="round" fill-opacity="0" class="primary" stroke="rgb(18,19,49)" stroke-opacity="1" stroke-width="10.5" d=" M53.76599884033203,-53.71500015258789 C43.13999938964844,-64.35099792480469 29.597999572753906,-71.59600067138672 14.852999687194824,-74.53399658203125 C0.10899999737739563,-77.4729995727539 -15.175999641418457,-75.97200012207031 -29.066999435424805,-70.22100067138672 C-42.95800018310547,-64.47100067138672 -54.83300018310547,-54.72999954223633 -63.1870002746582,-42.23099899291992 C-71.54100036621094,-29.731000900268555 -76,-15.034000396728516 -76,0 C-76,15.03499984741211 -71.54100036621094,29.731000900268555 -63.1870002746582,42.23099899291992 C-54.83300018310547,54.73099899291992 -42.95800018310547,64.47200012207031 -29.066999435424805,70.22200012207031 C-15.175999641418457,75.97200012207031 0.10899999737739563,77.4729995727539 14.852999687194824,74.53500366210938 C29.597999572753906,71.59600067138672 43.13999938964844,64.35099792480469 53.76599884033203,53.71500015258789 C68.00299835205078,39.4640007019043 76,20.143999099731445 76,0 C76,-20.143999099731445 68.00299835205078,-39.4640007019043 53.76599884033203,-53.71500015258789z M32.04600143432617,31.985000610351562 C25.718000411987305,38.308998107910156 17.656999588012695,42.6150016784668 8.881999969482422,44.358001708984375 C0.10700000077486038,46.10100173950195 -8.98799991607666,45.20399856567383 -17.253000259399414,41.77899932861328 C-25.51799964904785,38.354000091552734 -32.58100128173828,32.55500030517578 -37.55099868774414,25.115999221801758 C-42.520999908447266,17.677000045776367 -45.17399978637695,8.932000160217285 -45.17399978637695,-0.014999999664723873 C-45.17399978637695,-8.961000442504883 -42.520999908447266,-17.707000732421875 -37.55099868774414,-25.145999908447266 C-32.58100128173828,-32.584999084472656 -25.51799964904785,-38.382999420166016 -17.253000259399414,-41.80799865722656 C-8.98799991607666,-45.233001708984375 0.10700000077486038,-46.13100051879883 8.881999969482422,-44.38800048828125 C17.656999588012695,-42.64500045776367 25.718000411987305,-38.3390007019043 32.04600143432617,-32.01499938964844 C36.249000549316406,-27.812999725341797 39.58300018310547,-22.823999404907227 41.856998443603516,-17.333999633789062 C44.13199996948242,-11.843000411987305 45.303001403808594,-5.958000183105469 45.303001403808594,-0.014999999664723873 C45.303001403808594,5.927999973297119 44.13199996948242,11.812999725341797 41.856998443603516,17.304000854492188 C39.58300018310547,22.79400062561035 36.249000549316406,27.783000946044922 32.04600143432617,31.985000610351562z"/></g></g></g></g></svg>